<svg id="svg" version="1.1" xmlns="http://www.w3.org/2000/svg" xmlns:xlink="http://www.w3.org/1999/xlink" width="400" height="394.53125" viewBox="0, 0, 400,394.53125"><g id="svgg"><path id="path0" d="M195.240 41.985 C 193.498 43.795,184.849 52.211,154.788 81.343 C 118.214 116.786,103.805 130.770,100.265 134.255 C 98.610 135.884,92.566 141.747,86.834 147.285 C 81.102 152.823,72.946 160.756,68.709 164.913 C 64.473 169.070,58.710 174.667,55.903 177.351 C 53.096 180.035,46.965 186.006,42.280 190.620 L 33.761 199.010 42.053 207.098 C 46.614 211.546,50.452 215.189,50.582 215.194 C 50.800 215.202,59.719 206.648,74.630 192.132 C 84.393 182.627,94.074 173.230,107.204 160.513 C 113.931 153.998,120.789 147.335,122.444 145.706 C 124.099 144.077,130.055 138.306,135.678 132.882 C 141.302 127.458,149.191 119.794,153.208 115.850 C 157.226 111.907,163.077 106.217,166.211 103.205 C 169.344 100.194,176.096 93.637,181.216 88.634 C 193.593 76.539,196.443 73.840,196.834 73.840 C 197.015 73.840,200.111 76.730,203.714 80.263 C 207.318 83.795,216.041 92.279,223.100 99.116 C 230.158 105.953,238.865 114.401,242.448 117.888 C 246.032 121.375,255.000 130.083,262.377 137.238 C 269.755 144.393,276.960 151.402,278.390 152.813 C 279.819 154.225,282.934 157.241,285.312 159.516 C 292.791 166.670,312.911 186.219,331.450 204.344 C 332.783 205.647,335.840 208.610,338.244 210.929 L 342.615 215.145 343.623 214.483 C 344.177 214.118,348.050 210.469,352.229 206.373 L 359.829 198.925 355.729 194.880 C 353.474 192.655,339.635 179.220,324.975 165.023 C 310.316 150.827,295.502 136.453,292.055 133.081 C 281.612 122.865,279.295 120.610,269.113 110.760 C 255.508 97.599,253.738 95.882,246.792 89.097 C 243.425 85.809,234.896 77.525,227.838 70.688 C 220.780 63.850,212.962 56.263,210.464 53.827 C 202.128 45.698,196.843 40.680,196.644 40.706 C 196.535 40.720,195.904 41.295,195.240 41.985 M195.854 94.705 C 195.528 95.099,188.598 101.867,180.454 109.745 C 172.310 117.623,164.749 124.983,163.651 126.102 C 162.554 127.220,159.888 129.825,157.728 131.890 C 152.874 136.533,130.301 158.405,122.017 166.492 C 118.649 169.781,112.887 175.378,109.212 178.931 C 105.537 182.483,101.169 186.723,99.504 188.351 C 97.839 189.980,92.361 195.307,87.330 200.189 L 78.184 209.065 78.184 263.664 L 78.184 318.263 123.396 318.263 L 168.608 318.263 168.608 271.666 L 168.608 225.069 196.742 225.170 L 224.877 225.271 224.977 271.769 L 225.077 318.266 270.189 318.166 L 315.301 318.065 315.401 263.681 L 315.501 209.297 307.504 201.492 C 303.105 197.200,296.678 190.933,293.221 187.565 C 289.764 184.197,285.394 179.931,283.510 178.085 C 281.625 176.239,278.501 173.216,276.567 171.368 C 271.423 166.453,248.482 144.223,240.512 136.432 C 231.881 127.993,230.178 126.339,218.159 114.709 C 212.773 109.497,205.772 102.702,202.603 99.609 C 196.235 93.395,196.674 93.714,195.854 94.705 " stroke="none" fill="#fbfbfb" fill-rule="evenodd"></path><path id="path1" d="M208.095 1.579 C 208.095 1.827,205.660 1.974,201.579 1.974 C 197.499 1.974,195.064 2.122,195.064 2.369 C 195.064 2.603,193.616 2.764,191.510 2.764 C 189.404 2.764,187.957 2.925,187.957 3.159 C 187.957 3.385,186.772 3.554,185.192 3.554 C 183.613 3.554,182.428 3.723,182.428 3.949 C 182.428 4.168,181.375 4.344,180.059 4.344 C 178.743 4.344,177.690 4.519,177.690 4.738 C 177.690 4.958,176.637 5.133,175.321 5.133 C 174.005 5.133,172.952 5.309,172.952 5.528 C 172.952 5.745,172.063 5.923,170.977 5.923 C 169.891 5.923,169.003 6.101,169.003 6.318 C 169.003 6.535,168.115 6.713,167.029 6.713 C 165.943 6.713,165.054 6.890,165.054 7.108 C 165.054 7.325,164.432 7.502,163.672 7.502 C 162.912 7.502,162.290 7.680,162.290 7.897 C 162.290 8.115,161.579 8.292,160.711 8.292 C 159.842 8.292,159.131 8.470,159.131 8.687 C 159.131 8.904,158.421 9.082,157.552 9.082 C 156.683 9.082,155.972 9.260,155.972 9.477 C 155.972 9.694,155.439 9.872,154.788 9.872 C 154.136 9.872,153.603 10.049,153.603 10.267 C 153.603 10.484,152.892 10.661,152.024 10.661 C 151.155 10.661,150.444 10.839,150.444 11.056 C 150.444 11.273,149.911 11.451,149.260 11.451 C 148.608 11.451,148.075 11.629,148.075 11.846 C 148.075 12.063,147.364 12.241,146.496 12.241 C 145.627 12.241,144.916 12.419,144.916 12.636 C 144.916 12.853,144.383 13.031,143.731 13.031 C 143.080 13.031,142.547 13.208,142.547 13.425 C 142.547 13.643,142.014 13.820,141.362 13.820 C 140.711 13.820,140.178 13.998,140.178 14.215 C 140.178 14.432,139.645 14.610,138.993 14.610 C 138.342 14.610,137.808 14.788,137.808 15.005 C 137.808 15.222,137.275 15.400,136.624 15.400 C 135.972 15.400,135.439 15.577,135.439 15.795 C 135.439 16.012,134.906 16.190,134.255 16.190 C 133.603 16.190,133.070 16.367,133.070 16.584 C 133.070 16.802,132.537 16.979,131.885 16.979 C 131.234 16.979,130.701 17.157,130.701 17.374 C 130.701 17.591,130.346 17.769,129.911 17.769 C 129.477 17.769,129.121 17.947,129.121 18.164 C 129.121 18.381,128.677 18.559,128.134 18.559 C 127.591 18.559,127.147 18.730,127.147 18.940 C 127.147 19.150,126.259 19.439,125.173 19.583 C 124.087 19.727,123.198 20.000,123.198 20.189 C 123.198 20.378,122.843 20.533,122.409 20.533 C 121.974 20.533,121.619 20.711,121.619 20.928 C 121.619 21.145,121.264 21.323,120.829 21.323 C 120.395 21.323,120.039 21.500,120.039 21.718 C 120.039 21.935,119.506 22.113,118.855 22.113 C 118.203 22.113,117.670 22.290,117.670 22.507 C 117.670 22.725,117.315 22.902,116.881 22.902 C 116.446 22.902,116.091 23.080,116.091 23.297 C 116.091 23.514,115.735 23.692,115.301 23.692 C 114.867 23.692,114.511 23.870,114.511 24.087 C 114.511 24.304,114.156 24.482,113.722 24.482 C 113.287 24.482,112.932 24.659,112.932 24.877 C 112.932 25.094,112.577 25.271,112.142 25.271 C 111.708 25.271,111.352 25.449,111.352 25.666 C 111.352 25.884,110.997 26.061,110.563 26.061 C 110.128 26.061,109.773 26.239,109.773 26.456 C 109.773 26.673,109.240 26.851,108.588 26.851 C 107.937 26.851,107.404 27.029,107.404 27.246 C 107.404 27.463,107.048 27.641,106.614 27.641 C 106.180 27.641,105.824 27.818,105.824 28.036 C 105.824 28.253,105.469 28.430,105.035 28.430 C 104.600 28.430,104.245 28.608,104.245 28.825 C 104.245 29.042,103.889 29.220,103.455 29.220 C 103.021 29.220,102.665 29.398,102.665 29.615 C 102.665 29.832,102.349 30.010,101.963 30.010 C 101.576 30.010,101.004 30.365,100.691 30.800 C 100.378 31.234,99.806 31.589,99.419 31.589 C 99.033 31.589,98.717 31.767,98.717 31.984 C 98.717 32.201,98.361 32.379,97.927 32.379 C 97.493 32.379,97.137 32.557,97.137 32.774 C 97.137 32.991,96.782 33.169,96.347 33.169 C 95.913 33.169,95.558 33.346,95.558 33.564 C 95.558 33.781,95.202 33.959,94.768 33.959 C 94.334 33.959,93.978 34.136,93.978 34.353 C 93.978 34.571,93.662 34.748,93.276 34.748 C 92.889 34.748,92.317 35.104,92.004 35.538 C 91.691 35.972,91.207 36.328,90.930 36.328 C 90.652 36.328,90.424 36.505,90.424 36.723 C 90.424 36.940,90.069 37.117,89.635 37.117 C 89.200 37.117,88.845 37.295,88.845 37.512 C 88.845 37.730,88.529 37.907,88.142 37.907 C 87.756 37.907,87.184 38.263,86.871 38.697 C 86.558 39.131,85.985 39.487,85.599 39.487 C 85.213 39.487,84.896 39.664,84.896 39.882 C 84.896 40.099,84.580 40.276,84.194 40.276 C 83.807 40.276,83.235 40.632,82.922 41.066 C 82.609 41.500,82.076 41.856,81.737 41.856 C 81.399 41.856,80.866 42.211,80.553 42.646 C 80.240 43.080,79.707 43.435,79.368 43.435 C 79.030 43.435,78.497 43.791,78.184 44.225 C 77.871 44.659,77.337 45.015,76.999 45.015 C 76.661 45.015,76.127 45.370,75.814 45.805 C 75.501 46.239,74.968 46.594,74.630 46.594 C 74.291 46.594,73.758 46.950,73.445 47.384 C 73.132 47.818,72.631 48.174,72.332 48.174 C 72.033 48.174,71.290 48.707,70.681 49.358 C 70.073 50.010,69.362 50.543,69.102 50.543 C 68.842 50.543,68.131 51.076,67.522 51.728 C 66.914 52.379,66.203 52.912,65.943 52.912 C 65.683 52.912,64.972 53.445,64.363 54.097 C 63.755 54.748,63.044 55.281,62.784 55.281 C 62.524 55.281,61.813 55.814,61.204 56.466 C 60.596 57.117,59.894 57.651,59.646 57.651 C 59.397 57.651,58.767 58.050,58.244 58.539 C 56.565 60.108,56.117 60.415,55.495 60.415 C 55.161 60.415,54.886 60.582,54.886 60.787 C 54.886 61.305,50.287 65.943,49.773 65.943 C 49.226 65.943,29.220 85.949,29.220 86.496 C 29.220 86.726,28.154 87.961,26.851 89.240 C 25.548 90.519,24.482 91.764,24.482 92.008 C 24.482 92.251,23.593 93.315,22.507 94.373 C 21.422 95.431,20.533 96.509,20.533 96.769 C 20.533 97.285,19.037 98.717,18.498 98.717 C 18.314 98.717,18.164 99.064,18.164 99.488 C 18.164 99.913,17.720 100.704,17.177 101.247 C 16.634 101.790,16.190 102.438,16.190 102.686 C 16.190 102.935,15.656 103.636,15.005 104.245 C 14.353 104.853,13.820 105.596,13.820 105.896 C 13.820 106.195,13.465 106.696,13.031 107.009 C 12.596 107.322,12.241 107.855,12.241 108.193 C 12.241 108.532,11.885 109.065,11.451 109.378 C 11.017 109.691,10.661 110.224,10.661 110.563 C 10.661 110.901,10.306 111.434,9.872 111.747 C 9.437 112.060,9.082 112.593,9.082 112.932 C 9.082 113.270,8.727 113.803,8.292 114.116 C 7.858 114.430,7.502 115.002,7.502 115.388 C 7.502 115.775,7.325 116.091,7.108 116.091 C 6.890 116.091,6.713 116.407,6.713 116.793 C 6.713 117.180,6.357 117.752,5.923 118.065 C 5.489 118.378,5.133 118.951,5.133 119.337 C 5.133 119.723,4.956 120.039,4.738 120.039 C 4.521 120.039,4.344 120.356,4.344 120.742 C 4.344 121.128,3.988 121.701,3.554 122.014 C 3.119 122.327,2.764 122.899,2.764 123.286 C 2.764 123.672,2.586 123.988,2.369 123.988 C 2.152 123.988,1.974 124.329,1.974 124.745 C 1.974 125.161,1.824 125.561,1.639 125.633 C -0.176 126.347,-0.176 305.242,1.639 305.956 C 1.824 306.028,1.974 306.428,1.974 306.844 C 1.974 307.261,2.152 307.601,2.369 307.601 C 2.586 307.601,2.764 307.957,2.764 308.391 C 2.764 308.825,2.942 309.181,3.159 309.181 C 3.376 309.181,3.554 309.497,3.554 309.883 C 3.554 310.270,3.909 310.842,4.344 311.155 C 4.778 311.468,5.133 312.040,5.133 312.427 C 5.133 312.813,5.311 313.129,5.528 313.129 C 5.745 313.129,5.923 313.445,5.923 313.832 C 5.923 314.218,6.278 314.791,6.713 315.104 C 7.147 315.417,7.502 315.989,7.502 316.375 C 7.502 316.762,7.680 317.078,7.897 317.078 C 8.115 317.078,8.292 317.394,8.292 317.781 C 8.292 318.167,8.648 318.739,9.082 319.052 C 9.516 319.365,9.872 319.898,9.872 320.237 C 9.872 320.575,10.227 321.108,10.661 321.422 C 11.096 321.735,11.451 322.268,11.451 322.606 C 11.451 322.945,11.807 323.478,12.241 323.791 C 12.675 324.104,13.031 324.637,13.031 324.975 C 13.031 325.314,13.386 325.847,13.820 326.160 C 14.255 326.473,14.610 326.974,14.610 327.273 C 14.610 327.573,15.143 328.315,15.795 328.924 C 16.446 329.533,16.979 330.239,16.979 330.493 C 16.979 330.747,17.201 331.202,17.473 331.505 C 18.659 332.828,18.954 333.261,18.954 333.685 C 18.954 333.933,19.487 334.633,20.138 335.242 C 20.790 335.850,21.323 336.558,21.323 336.813 C 21.323 337.351,24.368 340.375,24.909 340.375 C 25.108 340.375,25.271 340.650,25.271 340.986 C 25.271 341.323,26.515 342.825,28.036 344.324 C 29.556 345.823,30.800 347.237,30.800 347.466 C 30.800 348.011,49.228 366.436,49.773 366.436 C 50.287 366.436,54.886 371.074,54.886 371.592 C 54.886 371.797,55.167 371.964,55.510 371.964 C 55.853 371.964,56.816 372.675,57.651 373.544 C 58.485 374.413,59.374 375.123,59.625 375.123 C 59.876 375.123,60.765 375.834,61.599 376.703 C 62.434 377.572,63.316 378.282,63.561 378.282 C 63.805 378.282,64.449 378.727,64.991 379.269 C 65.534 379.812,66.287 380.257,66.663 380.257 C 67.040 380.257,67.604 380.612,67.917 381.046 C 68.230 381.481,68.731 381.836,69.030 381.836 C 69.330 381.836,70.073 382.369,70.681 383.021 C 71.290 383.672,72.033 384.205,72.332 384.205 C 72.631 384.205,73.132 384.561,73.445 384.995 C 73.758 385.429,74.291 385.785,74.630 385.785 C 74.968 385.785,75.501 386.140,75.814 386.575 C 76.127 387.009,76.661 387.364,76.999 387.364 C 77.337 387.364,77.871 387.720,78.184 388.154 C 78.497 388.588,79.069 388.944,79.455 388.944 C 79.842 388.944,80.158 389.121,80.158 389.339 C 80.158 389.556,80.474 389.733,80.861 389.733 C 81.247 389.733,81.819 390.089,82.132 390.523 C 82.445 390.958,83.018 391.313,83.404 391.313 C 83.790 391.313,84.107 391.491,84.107 391.708 C 84.107 391.925,84.423 392.103,84.809 392.103 C 85.196 392.103,85.768 392.458,86.081 392.892 C 86.394 393.327,86.966 393.682,87.353 393.682 C 87.739 393.682,88.055 393.949,88.055 394.274 C 88.055 394.799,99.989 394.867,193.090 394.867 C 286.191 394.867,298.124 394.799,298.124 394.274 C 298.124 393.949,298.441 393.682,298.827 393.682 C 299.213 393.682,299.786 393.327,300.099 392.892 C 300.412 392.458,300.984 392.103,301.370 392.103 C 301.757 392.103,302.073 391.925,302.073 391.708 C 302.073 391.491,302.389 391.313,302.776 391.313 C 303.162 391.313,303.734 390.958,304.047 390.523 C 304.360 390.089,304.933 389.733,305.319 389.733 C 305.706 389.733,306.022 389.556,306.022 389.339 C 306.022 389.121,306.338 388.944,306.724 388.944 C 307.111 388.944,307.683 388.588,307.996 388.154 C 308.309 387.720,308.881 387.364,309.268 387.364 C 309.654 387.364,309.970 387.187,309.970 386.969 C 309.970 386.752,310.287 386.575,310.673 386.575 C 311.059 386.575,311.632 386.219,311.945 385.785 C 312.258 385.350,312.702 384.995,312.932 384.995 C 313.162 384.995,313.606 384.640,313.919 384.205 C 314.232 383.771,314.804 383.416,315.191 383.416 C 315.577 383.416,315.893 383.238,315.893 383.021 C 315.893 382.804,316.177 382.626,316.525 382.626 C 316.872 382.626,317.627 382.123,318.203 381.508 C 318.779 380.893,319.738 380.267,320.336 380.118 C 320.933 379.969,321.422 379.672,321.422 379.459 C 321.422 379.246,321.706 379.072,322.053 379.072 C 322.400 379.072,323.182 378.539,323.791 377.887 C 324.399 377.236,325.110 376.703,325.370 376.703 C 325.630 376.703,326.341 376.170,326.950 375.518 C 327.558 374.867,328.269 374.334,328.529 374.334 C 328.789 374.334,329.500 373.801,330.109 373.149 C 330.717 372.498,331.424 371.964,331.680 371.964 C 331.936 371.964,332.828 371.254,333.662 370.385 C 334.497 369.516,335.383 368.806,335.631 368.806 C 335.880 368.806,336.948 367.917,338.006 366.831 C 339.064 365.745,340.126 364.857,340.366 364.857 C 340.607 364.857,342.210 363.435,343.929 361.698 C 345.648 359.961,347.284 358.534,347.565 358.527 C 347.845 358.521,348.519 357.973,349.062 357.310 C 349.605 356.647,352.759 353.366,356.071 350.020 C 359.383 346.673,362.101 343.712,362.111 343.438 C 362.121 343.165,362.835 342.320,363.698 341.560 C 367.184 338.489,368.411 337.257,368.411 336.827 C 368.411 336.578,369.299 335.510,370.385 334.452 C 371.471 333.394,372.359 332.326,372.359 332.078 C 372.359 331.829,373.070 330.943,373.939 330.109 C 374.808 329.274,375.518 328.382,375.518 328.126 C 375.518 327.871,376.051 327.163,376.703 326.555 C 377.354 325.946,377.887 325.235,377.887 324.975 C 377.887 324.715,378.421 324.004,379.072 323.396 C 379.724 322.787,380.257 322.044,380.257 321.745 C 380.257 321.446,380.612 320.945,381.046 320.632 C 381.481 320.319,381.836 319.818,381.836 319.518 C 381.836 319.219,382.369 318.476,383.021 317.868 C 383.672 317.259,384.205 316.477,384.205 316.130 C 384.205 315.783,384.383 315.499,384.600 315.499 C 384.817 315.499,384.995 315.143,384.995 314.709 C 384.995 314.274,385.169 313.919,385.382 313.919 C 385.595 313.919,385.890 313.430,386.038 312.833 C 386.185 312.236,386.633 311.460,387.033 311.109 C 387.432 310.757,387.759 310.180,387.759 309.825 C 387.759 309.471,387.937 309.181,388.154 309.181 C 388.371 309.181,388.549 308.864,388.549 308.478 C 388.549 308.092,388.904 307.519,389.339 307.206 C 389.773 306.893,390.128 306.321,390.128 305.935 C 390.128 305.548,390.306 305.232,390.523 305.232 C 390.740 305.232,390.918 304.916,390.918 304.529 C 390.918 304.143,391.273 303.571,391.708 303.258 C 392.142 302.945,392.498 302.372,392.498 301.986 C 392.498 301.599,392.675 301.283,392.892 301.283 C 393.110 301.283,393.287 301.017,393.287 300.691 C 393.287 300.365,393.465 300.099,393.682 300.099 C 393.899 300.099,394.077 299.743,394.077 299.309 C 394.077 298.875,394.255 298.519,394.472 298.519 C 394.689 298.519,394.867 298.164,394.867 297.730 C 394.867 297.295,395.044 296.940,395.262 296.940 C 395.479 296.940,395.656 296.584,395.656 296.150 C 395.656 295.716,395.834 295.360,396.051 295.360 C 396.269 295.360,396.446 295.005,396.446 294.571 C 396.446 294.136,396.624 293.781,396.841 293.781 C 397.058 293.781,397.236 293.425,397.236 292.991 C 397.236 292.557,397.414 292.201,397.631 292.201 C 397.848 292.201,398.026 291.846,398.026 291.412 C 398.026 290.977,398.203 290.622,398.421 290.622 C 398.638 290.622,398.815 290.267,398.815 289.832 C 398.815 289.393,399.079 289.042,399.408 289.042 C 399.932 289.042,400.000 280.004,400.000 210.069 C 400.000 140.134,399.932 131.096,399.408 131.096 C 399.079 131.096,398.815 130.745,398.815 130.306 C 398.815 129.872,398.638 129.516,398.421 129.516 C 398.203 129.516,398.026 129.161,398.026 128.727 C 398.026 128.292,397.848 127.937,397.631 127.937 C 397.414 127.937,397.236 127.404,397.236 126.752 C 397.236 126.101,397.058 125.568,396.841 125.568 C 396.624 125.568,396.446 125.212,396.446 124.778 C 396.446 124.344,396.269 123.988,396.051 123.988 C 395.834 123.988,395.656 123.633,395.656 123.198 C 395.656 122.764,395.479 122.409,395.262 122.409 C 395.044 122.409,394.867 122.053,394.867 121.619 C 394.867 121.185,394.689 120.829,394.472 120.829 C 394.255 120.829,394.077 120.474,394.077 120.039 C 394.077 119.605,393.899 119.250,393.682 119.250 C 393.465 119.250,393.287 118.894,393.287 118.460 C 393.287 118.026,393.110 117.670,392.892 117.670 C 392.675 117.670,392.498 117.315,392.498 116.881 C 392.498 116.446,392.320 116.091,392.103 116.091 C 391.885 116.091,391.708 115.735,391.708 115.301 C 391.708 114.867,391.530 114.511,391.313 114.511 C 391.096 114.511,390.918 114.156,390.918 113.722 C 390.918 113.287,390.740 112.932,390.523 112.932 C 390.306 112.932,390.128 112.577,390.128 112.142 C 390.128 111.708,389.951 111.352,389.733 111.352 C 389.516 111.352,389.339 110.997,389.339 110.563 C 389.339 110.128,389.161 109.773,388.944 109.773 C 388.727 109.773,388.549 109.457,388.549 109.070 C 388.549 108.684,388.193 108.112,387.759 107.799 C 387.325 107.486,386.969 106.913,386.969 106.527 C 386.969 106.140,386.792 105.824,386.575 105.824 C 386.357 105.824,386.180 105.482,386.180 105.063 C 386.180 104.644,385.913 104.035,385.587 103.709 C 385.262 103.383,384.995 102.837,384.995 102.496 C 384.995 102.155,384.817 101.876,384.600 101.876 C 384.383 101.876,384.205 101.559,384.205 101.173 C 384.205 100.787,383.850 100.214,383.416 99.901 C 382.981 99.588,382.626 99.144,382.626 98.914 C 382.626 98.684,382.270 98.240,381.836 97.927 C 381.402 97.614,381.046 97.042,381.046 96.655 C 381.046 96.269,380.869 95.953,380.652 95.953 C 380.434 95.953,380.257 95.669,380.257 95.321 C 380.257 94.974,379.724 94.192,379.072 93.583 C 378.421 92.975,377.887 92.232,377.887 91.933 C 377.887 91.633,377.532 91.132,377.098 90.819 C 376.663 90.506,376.308 90.005,376.308 89.706 C 376.308 89.407,375.775 88.664,375.123 88.055 C 374.472 87.447,373.939 86.736,373.939 86.476 C 373.939 86.216,373.406 85.505,372.754 84.896 C 372.103 84.288,371.570 83.577,371.570 83.317 C 371.570 83.057,371.037 82.346,370.385 81.737 C 369.733 81.129,369.200 80.424,369.200 80.171 C 369.200 79.919,368.312 78.846,367.226 77.789 C 366.140 76.731,365.252 75.669,365.252 75.428 C 365.252 75.188,363.830 73.585,362.093 71.866 C 360.355 70.147,358.934 68.554,358.934 68.326 C 358.934 67.788,346.421 55.281,345.883 55.281 C 345.658 55.281,344.068 53.860,342.349 52.122 C 340.631 50.385,339.027 48.963,338.787 48.963 C 338.546 48.963,337.484 48.075,336.426 46.989 C 335.369 45.903,334.297 45.015,334.044 45.015 C 333.791 45.015,333.086 44.482,332.478 43.830 C 331.869 43.179,331.158 42.646,330.898 42.646 C 330.638 42.646,329.927 42.113,329.319 41.461 C 328.710 40.809,327.999 40.276,327.739 40.276 C 327.479 40.276,326.769 39.743,326.160 39.092 C 325.551 38.440,324.808 37.907,324.509 37.907 C 324.210 37.907,323.709 37.552,323.396 37.117 C 323.083 36.683,322.550 36.328,322.211 36.328 C 321.873 36.328,321.340 35.972,321.027 35.538 C 320.714 35.104,320.181 34.748,319.842 34.748 C 319.504 34.748,318.971 34.393,318.657 33.959 C 318.344 33.524,317.811 33.169,317.473 33.169 C 317.134 33.169,316.601 32.813,316.288 32.379 C 315.975 31.945,315.403 31.589,315.016 31.589 C 314.630 31.589,314.314 31.412,314.314 31.194 C 314.314 30.977,314.087 30.800,313.809 30.800 C 313.531 30.800,313.048 30.444,312.734 30.010 C 312.421 29.576,311.849 29.220,311.463 29.220 C 311.076 29.220,310.760 29.042,310.760 28.825 C 310.760 28.608,310.444 28.430,310.058 28.430 C 309.671 28.430,309.099 28.075,308.786 27.641 C 308.473 27.206,307.900 26.851,307.514 26.851 C 307.128 26.851,306.811 26.673,306.811 26.456 C 306.811 26.239,306.456 26.061,306.022 26.061 C 305.587 26.061,305.232 25.884,305.232 25.666 C 305.232 25.449,304.877 25.271,304.442 25.271 C 304.008 25.271,303.653 25.094,303.653 24.877 C 303.653 24.659,303.297 24.482,302.863 24.482 C 302.428 24.482,302.073 24.304,302.073 24.087 C 302.073 23.870,301.718 23.692,301.283 23.692 C 300.849 23.692,300.494 23.514,300.494 23.297 C 300.494 23.080,300.138 22.902,299.704 22.902 C 299.269 22.902,298.914 22.725,298.914 22.507 C 298.914 22.290,298.559 22.113,298.124 22.113 C 297.690 22.113,297.335 21.935,297.335 21.718 C 297.335 21.500,296.979 21.323,296.545 21.323 C 296.111 21.323,295.755 21.145,295.755 20.928 C 295.755 20.711,295.400 20.533,294.965 20.533 C 294.531 20.533,294.176 20.371,294.176 20.173 C 294.176 19.975,293.465 19.693,292.596 19.546 C 291.728 19.399,291.017 19.117,291.017 18.919 C 291.017 18.721,290.661 18.559,290.227 18.559 C 289.793 18.559,289.437 18.381,289.437 18.164 C 289.437 17.947,288.904 17.769,288.253 17.769 C 287.601 17.769,287.068 17.591,287.068 17.374 C 287.068 17.157,286.713 16.979,286.278 16.979 C 285.844 16.979,285.489 16.802,285.489 16.584 C 285.489 16.367,285.133 16.190,284.699 16.190 C 284.265 16.190,283.909 16.012,283.909 15.795 C 283.909 15.577,283.376 15.400,282.725 15.400 C 282.073 15.400,281.540 15.222,281.540 15.005 C 281.540 14.788,281.007 14.610,280.355 14.610 C 279.704 14.610,279.171 14.432,279.171 14.215 C 279.171 13.998,278.815 13.820,278.381 13.820 C 277.947 13.820,277.591 13.643,277.591 13.425 C 277.591 13.208,277.147 13.031,276.604 13.031 C 276.061 13.031,275.617 12.853,275.617 12.636 C 275.617 12.419,275.084 12.241,274.432 12.241 C 273.781 12.241,273.248 12.063,273.248 11.846 C 273.248 11.629,272.715 11.451,272.063 11.451 C 271.412 11.451,270.879 11.273,270.879 11.056 C 270.879 10.839,270.346 10.661,269.694 10.661 C 269.042 10.661,268.509 10.484,268.509 10.267 C 268.509 10.049,267.799 9.872,266.930 9.872 C 266.061 9.872,265.350 9.694,265.350 9.477 C 265.350 9.260,264.817 9.082,264.166 9.082 C 263.514 9.082,262.981 8.904,262.981 8.687 C 262.981 8.470,262.270 8.292,261.402 8.292 C 260.533 8.292,259.822 8.115,259.822 7.897 C 259.822 7.680,259.112 7.502,258.243 7.502 C 257.374 7.502,256.663 7.325,256.663 7.108 C 256.663 6.890,255.953 6.713,255.084 6.713 C 254.215 6.713,253.504 6.535,253.504 6.318 C 253.504 6.101,252.616 5.923,251.530 5.923 C 250.444 5.923,249.556 5.745,249.556 5.528 C 249.556 5.311,248.667 5.133,247.581 5.133 C 246.496 5.133,245.607 4.956,245.607 4.738 C 245.607 4.519,244.554 4.344,243.238 4.344 C 241.922 4.344,240.869 4.168,240.869 3.949 C 240.869 3.726,239.750 3.554,238.302 3.554 C 236.854 3.554,235.735 3.382,235.735 3.159 C 235.735 2.925,234.288 2.764,232.182 2.764 C 230.076 2.764,228.628 2.603,228.628 2.369 C 228.628 2.121,226.127 1.974,221.915 1.974 C 217.703 1.974,215.202 1.827,215.202 1.579 C 215.202 1.345,213.755 1.185,211.649 1.185 C 209.543 1.185,208.095 1.345,208.095 1.579 M199.364 41.637 C 200.583 42.820,205.976 48.151,211.350 53.483 C 216.724 58.816,221.243 63.179,221.392 63.179 C 221.541 63.179,224.407 65.888,227.761 69.200 C 231.115 72.512,237.006 78.332,240.851 82.132 C 244.697 85.933,250.303 91.352,253.307 94.176 C 256.312 96.999,263.405 103.845,269.070 109.389 C 274.734 114.933,281.042 121.063,283.089 123.012 C 285.135 124.961,289.591 129.309,292.991 132.675 C 296.391 136.041,300.847 140.387,302.893 142.332 C 307.271 146.492,329.920 168.446,335.018 173.472 C 341.668 180.026,357.156 194.963,358.835 196.442 C 361.408 198.708,361.435 198.661,352.122 207.771 C 342.711 216.979,343.165 216.746,340.125 213.919 C 333.922 208.151,326.210 200.656,317.582 192.012 C 312.321 186.741,307.878 182.425,307.710 182.421 C 307.425 182.414,304.300 179.410,287.454 162.942 C 280.131 155.784,258.180 134.478,250.982 127.542 C 248.390 125.044,242.570 119.314,238.048 114.808 C 233.526 110.301,229.735 106.614,229.623 106.614 C 229.512 106.614,228.008 105.192,226.282 103.455 C 224.557 101.718,223.051 100.296,222.935 100.296 C 222.737 100.296,207.372 85.293,200.391 78.282 C 198.607 76.491,197.012 75.025,196.847 75.025 C 196.682 75.025,193.415 78.113,189.587 81.887 C 179.263 92.065,172.544 98.499,172.058 98.674 C 171.821 98.760,167.339 103.113,162.099 108.348 C 156.859 113.584,149.561 120.765,145.881 124.307 C 133.827 135.909,120.825 148.552,114.333 154.985 C 110.826 158.460,104.856 164.225,101.066 167.796 C 97.276 171.367,89.911 178.485,84.699 183.615 C 79.487 188.744,73.549 194.529,71.504 196.471 C 69.459 198.412,65.073 202.665,61.759 205.923 C 51.912 215.601,50.980 216.467,50.586 216.325 C 50.233 216.198,40.094 206.693,35.044 201.754 C 33.796 200.533,32.772 199.284,32.769 198.977 C 32.765 198.419,50.072 181.268,50.656 181.252 C 50.826 181.248,55.279 176.935,60.550 171.668 C 65.821 166.402,73.144 159.198,76.824 155.660 C 87.049 145.829,101.251 132.018,108.581 124.778 C 112.208 121.194,116.759 116.765,118.694 114.934 C 120.628 113.103,123.810 110.094,125.765 108.247 C 127.720 106.400,133.583 100.701,138.796 95.583 C 149.341 85.228,168.262 66.855,175.478 59.965 C 178.062 57.498,183.821 51.881,188.276 47.483 C 197.563 38.314,196.512 38.868,199.364 41.637 M199.845 95.887 C 201.016 97.154,202.185 98.265,202.442 98.355 C 202.700 98.445,205.651 101.185,209.000 104.442 C 212.349 107.700,219.495 114.630,224.880 119.842 C 230.265 125.054,237.719 132.340,241.443 136.032 C 245.168 139.724,250.863 145.232,254.100 148.272 C 257.336 151.313,264.566 158.376,270.168 163.968 C 275.769 169.561,280.463 174.136,280.599 174.136 C 280.735 174.136,282.267 175.558,284.005 177.295 C 285.742 179.033,287.228 180.454,287.305 180.454 C 287.383 180.454,291.671 184.585,296.833 189.634 C 310.832 203.326,312.557 205.000,314.300 206.581 L 315.896 208.028 315.796 263.639 L 315.696 319.250 269.891 319.250 L 224.087 319.250 223.987 272.359 L 223.886 225.469 196.445 225.469 L 169.003 225.469 169.003 272.458 L 169.003 319.447 123.475 319.447 C 88.591 319.447,77.836 319.336,77.473 318.973 C 77.109 318.609,76.999 305.793,76.999 263.689 L 76.999 208.878 82.813 203.254 C 91.395 194.953,98.691 187.855,106.955 179.765 C 111.002 175.803,114.405 172.560,114.517 172.559 C 114.629 172.558,119.272 168.070,124.835 162.586 C 143.244 144.441,147.218 140.573,147.452 140.573 C 147.580 140.573,152.008 136.264,157.293 130.997 C 162.578 125.731,169.895 118.578,173.552 115.104 C 177.210 111.629,182.924 106.076,186.248 102.764 C 189.573 99.452,192.429 96.734,192.593 96.724 C 192.758 96.714,193.514 96.012,194.274 95.163 C 196.278 92.926,197.222 93.049,199.845 95.887 " stroke="none" fill="#538bd3" fill-rule="evenodd"></path><path id="path2" d="M191.905 44.723 C 178.287 58.034,167.920 68.123,164.625 71.273 C 158.022 77.586,133.037 101.832,119.255 115.301 C 117.811 116.713,114.775 119.642,112.510 121.811 C 110.244 123.980,104.196 129.844,99.069 134.842 C 93.943 139.840,85.502 148.041,80.313 153.066 C 75.124 158.092,69.358 163.689,67.499 165.505 C 59.747 173.077,38.696 193.488,36.229 195.824 C 34.763 197.212,33.564 198.556,33.564 198.809 C 33.564 199.063,37.374 203.025,42.031 207.614 L 50.498 215.957 52.594 213.941 C 53.746 212.832,56.288 210.394,58.243 208.524 C 63.354 203.634,86.294 181.407,94.138 173.746 C 101.901 166.163,104.019 164.106,110.401 157.956 C 116.556 152.024,139.084 130.186,143.134 126.225 C 144.874 124.523,150.734 118.837,156.156 113.589 C 161.578 108.341,170.196 99.954,175.307 94.951 C 180.418 89.948,186.281 84.261,188.335 82.315 C 190.389 80.368,193.093 77.728,194.344 76.446 C 196.951 73.775,196.400 73.657,200.589 77.789 C 203.448 80.608,213.669 90.556,222.902 99.505 C 226.160 102.662,231.935 108.265,235.735 111.956 C 239.536 115.647,248.509 124.346,255.676 131.288 C 267.571 142.808,276.687 151.680,284.693 159.526 C 286.354 161.155,289.390 164.084,291.438 166.034 C 293.487 167.985,299.356 173.671,304.480 178.670 C 309.605 183.669,318.196 192.024,323.572 197.236 C 328.948 202.448,335.406 208.712,337.925 211.155 C 343.399 216.466,342.364 216.376,347.010 211.946 C 361.060 198.550,360.608 199.092,359.018 197.528 C 357.183 195.723,344.923 183.810,338.003 177.109 C 334.421 173.640,328.467 167.865,324.771 164.275 C 321.076 160.686,312.280 152.155,305.225 145.318 C 298.171 138.480,289.511 130.047,285.982 126.577 C 282.453 123.107,279.566 120.402,279.566 120.566 C 279.566 120.729,280.966 122.233,282.678 123.906 C 284.389 125.580,288.609 129.709,292.056 133.081 C 295.502 136.453,310.316 150.827,324.975 165.023 C 339.635 179.220,353.474 192.655,355.729 194.880 L 359.829 198.925 352.229 206.373 C 348.050 210.469,344.177 214.118,343.623 214.483 L 342.615 215.145 338.244 210.929 C 335.840 208.610,332.783 205.647,331.450 204.344 C 312.911 186.219,292.791 166.670,285.312 159.516 C 282.934 157.241,279.819 154.225,278.390 152.813 C 276.960 151.402,269.755 144.393,262.377 137.238 C 255.000 130.083,246.032 121.375,242.448 117.888 C 238.865 114.401,230.158 105.953,223.100 99.116 C 216.041 92.279,207.318 83.795,203.714 80.263 C 200.111 76.730,197.015 73.840,196.834 73.840 C 196.443 73.840,193.593 76.539,181.216 88.634 C 176.096 93.637,169.344 100.194,166.211 103.205 C 163.077 106.217,157.226 111.907,153.208 115.850 C 149.191 119.794,141.302 127.458,135.678 132.882 C 130.055 138.306,124.099 144.077,122.444 145.706 C 120.789 147.335,113.931 153.998,107.204 160.513 C 94.074 173.230,84.393 182.627,74.630 192.132 C 59.719 206.648,50.800 215.202,50.582 215.194 C 50.452 215.189,46.614 211.546,42.053 207.098 L 33.761 199.010 42.280 190.620 C 46.965 186.006,53.096 180.035,55.903 177.351 C 58.710 174.667,64.473 169.070,68.709 164.913 C 72.946 160.756,81.102 152.823,86.834 147.285 C 92.566 141.747,98.610 135.884,100.264 134.255 C 103.687 130.884,118.627 116.388,148.075 87.865 C 159.260 77.031,171.703 64.957,175.727 61.033 C 179.751 57.110,186.119 50.900,189.877 47.234 L 196.711 40.568 198.931 42.693 C 200.151 43.861,204.090 47.666,207.683 51.147 C 211.276 54.629,217.325 60.490,221.125 64.172 C 231.489 74.213,240.291 82.764,243.675 86.081 C 245.338 87.710,251.109 93.307,256.500 98.519 C 261.892 103.731,269.150 110.784,272.629 114.192 C 276.108 117.599,279.016 120.326,279.091 120.251 C 279.255 120.087,276.081 116.942,262.937 104.245 C 257.429 98.924,251.587 93.238,249.955 91.608 C 248.324 89.979,242.566 84.382,237.159 79.170 C 225.939 68.353,223.782 66.263,214.551 57.256 C 202.597 45.590,197.017 40.276,196.729 40.281 C 196.573 40.283,194.403 42.282,191.905 44.723 M191.510 98.428 C 181.588 108.150,166.909 122.441,157.344 131.688 C 151.953 136.900,146.176 142.498,144.507 144.126 C 142.837 145.755,136.696 151.708,130.859 157.354 C 125.022 163.001,119.087 168.776,117.671 170.188 C 116.255 171.599,112.163 175.597,108.578 179.072 C 104.993 182.547,96.598 190.699,89.923 197.188 L 77.786 208.986 77.886 263.723 L 77.986 318.460 123.396 318.460 L 168.806 318.460 168.906 271.964 L 169.006 225.469 196.645 225.469 L 224.284 225.469 224.284 271.823 C 224.284 313.729,224.344 318.201,224.909 318.418 C 226.550 319.048,315.409 318.671,315.654 318.033 C 315.786 317.689,315.893 293.021,315.893 263.213 L 315.893 209.018 311.056 204.310 C 308.396 201.721,294.492 188.231,280.158 174.333 C 265.824 160.435,251.343 146.374,247.976 143.086 C 244.610 139.797,240.406 135.710,238.634 134.003 C 233.695 129.244,215.424 111.524,212.021 108.193 C 210.357 106.565,206.324 102.611,203.059 99.408 C 199.794 96.204,196.971 93.585,196.785 93.587 C 196.599 93.590,194.225 95.768,191.510 98.428 M202.603 99.609 C 205.772 102.702,212.773 109.497,218.159 114.709 C 230.178 126.339,231.881 127.993,240.512 136.432 C 248.482 144.223,271.423 166.453,276.567 171.368 C 278.501 173.216,281.625 176.239,283.510 178.085 C 285.394 179.931,289.764 184.197,293.221 187.565 C 296.678 190.933,303.105 197.200,307.504 201.492 L 315.501 209.297 315.401 263.681 L 315.301 318.065 270.189 318.166 L 225.077 318.266 224.977 271.769 L 224.877 225.271 196.742 225.170 L 168.608 225.069 168.608 271.666 L 168.608 318.263 123.396 318.263 L 78.184 318.263 78.184 263.664 L 78.184 209.065 87.330 200.189 C 92.361 195.307,97.839 189.980,99.504 188.351 C 101.169 186.723,105.537 182.483,109.212 178.931 C 112.887 175.378,118.649 169.781,122.017 166.492 C 130.301 158.405,152.874 136.533,157.728 131.890 C 159.888 129.825,162.554 127.220,163.651 126.102 C 164.749 124.983,172.310 117.623,180.454 109.745 C 188.598 101.867,195.528 95.099,195.854 94.705 C 196.674 93.714,196.235 93.395,202.603 99.609 " stroke="none" fill="#93bbe4" fill-rule="evenodd"></path><path id="path3" d="M190.514 45.903 L 187.364 49.161 190.622 46.011 C 193.648 43.086,194.060 42.646,193.772 42.646 C 193.712 42.646,192.246 44.112,190.514 45.903 M204.344 47.246 C 210.209 53.114,214.018 56.742,214.018 56.458 C 214.018 56.303,211.130 53.455,207.601 50.130 C 204.072 46.805,202.606 45.507,204.344 47.246 M184.008 51.925 C 182.390 53.554,181.155 54.886,181.264 54.886 C 181.372 54.886,182.785 53.554,184.403 51.925 C 186.021 50.296,187.256 48.963,187.147 48.963 C 187.038 48.963,185.626 50.296,184.008 51.925 M177.483 58.539 L 174.334 61.797 177.591 58.647 C 180.617 55.722,181.029 55.281,180.741 55.281 C 180.682 55.281,179.216 56.747,177.483 58.539 M217.769 60.415 C 219.715 62.369,221.395 63.968,221.504 63.968 C 221.612 63.968,220.109 62.369,218.164 60.415 C 216.218 58.460,214.538 56.861,214.429 56.861 C 214.321 56.861,215.823 58.460,217.769 60.415 M166.417 69.213 C 163.561 72.126,162.855 72.948,164.817 71.075 C 170.891 65.276,171.847 64.312,171.687 64.152 C 171.601 64.066,169.230 66.343,166.417 69.213 M230.800 73.050 C 232.745 75.005,234.426 76.604,234.534 76.604 C 234.643 76.604,233.140 75.005,231.194 73.050 C 229.249 71.096,227.568 69.497,227.460 69.497 C 227.351 69.497,228.854 71.096,230.800 73.050 M152.017 83.218 L 147.878 87.463 152.122 83.324 C 154.457 81.047,156.367 79.137,156.367 79.079 C 156.367 78.794,155.861 79.275,152.017 83.218 M184.008 86.522 L 176.308 94.053 184.107 86.649 C 191.090 80.020,192.164 78.950,191.807 78.982 C 191.752 78.987,188.243 82.380,184.008 86.522 M203.007 80.652 C 203.105 80.706,205.222 82.705,207.713 85.094 L 212.241 89.437 207.904 84.995 C 205.519 82.552,203.401 80.553,203.199 80.553 C 202.996 80.553,202.910 80.597,203.007 80.652 M243.633 85.489 C 245.469 87.335,247.061 88.845,247.169 88.845 C 247.278 88.845,245.864 87.335,244.028 85.489 C 242.191 83.643,240.600 82.132,240.491 82.132 C 240.383 82.132,241.796 83.643,243.633 85.489 M214.413 91.807 C 215.149 92.567,215.841 93.189,215.950 93.189 C 216.058 93.189,215.544 92.567,214.808 91.807 C 214.071 91.046,213.379 90.424,213.271 90.424 C 213.162 90.424,213.676 91.046,214.413 91.807 M138.494 96.216 C 136.590 98.091,135.089 99.682,135.158 99.751 C 135.227 99.820,136.869 98.283,138.808 96.335 C 140.747 94.387,142.248 92.796,142.144 92.799 C 142.040 92.802,140.397 94.340,138.494 96.216 M219.743 96.742 C 221.689 98.697,223.370 100.296,223.478 100.296 C 223.587 100.296,222.084 98.697,220.138 96.742 C 218.193 94.788,216.512 93.189,216.403 93.189 C 216.295 93.189,217.798 94.788,219.743 96.742 M257.841 99.211 C 260.117 101.545,262.124 103.455,262.301 103.455 C 262.478 103.455,262.198 103.055,261.680 102.567 C 261.162 102.078,259.155 100.168,257.220 98.323 C 253.872 95.129,253.902 95.172,257.841 99.211 M189.724 100.000 L 186.575 103.258 189.832 100.108 C 192.858 97.183,193.270 96.742,192.982 96.742 C 192.922 96.742,191.457 98.208,189.724 100.000 M162.676 107.305 L 159.329 110.760 162.871 107.404 C 164.819 105.558,166.492 104.003,166.589 103.949 C 166.686 103.894,166.599 103.850,166.395 103.850 C 166.191 103.850,164.518 105.405,162.676 107.305 M263.771 104.944 C 263.771 105.126,264.393 105.877,265.153 106.614 C 265.913 107.351,266.535 107.824,266.535 107.665 C 266.535 107.507,265.913 106.756,265.153 105.995 C 264.393 105.235,263.771 104.762,263.771 104.944 M229.470 106.120 C 229.499 106.283,231.232 108.012,233.320 109.963 L 237.117 113.509 233.374 109.667 C 229.589 105.782,229.376 105.588,229.470 106.120 M123.776 110.661 L 121.816 112.734 123.889 110.775 C 125.030 109.697,125.962 108.764,125.962 108.702 C 125.962 108.407,125.597 108.735,123.776 110.661 M177.089 112.241 L 173.544 115.893 177.196 112.348 C 180.589 109.055,181.029 108.588,180.742 108.588 C 180.683 108.588,179.040 110.232,177.089 112.241 M218.559 114.511 C 220.504 116.466,222.185 118.065,222.294 118.065 C 222.402 118.065,220.899 116.466,218.954 114.511 C 217.008 112.557,215.327 110.958,215.219 110.958 C 215.110 110.958,216.613 112.557,218.559 114.511 M155.188 114.308 C 154.455 115.065,153.931 115.745,154.025 115.819 C 154.119 115.893,154.794 115.274,155.525 114.443 C 157.186 112.554,156.971 112.468,155.188 114.308 M149.251 120.336 L 145.903 123.791 149.358 120.443 C 152.567 117.334,152.993 116.881,152.706 116.881 C 152.647 116.881,151.092 118.435,149.251 120.336 M241.066 117.520 C 245.245 121.640,249.460 125.444,246.989 122.865 C 245.469 121.278,243.337 119.251,242.251 118.361 C 241.165 117.470,240.632 117.092,241.066 117.520 M112.098 121.822 C 110.228 123.665,108.811 125.173,108.948 125.173 C 109.086 125.173,110.701 123.662,112.537 121.816 C 114.373 119.970,115.791 118.463,115.687 118.466 C 115.583 118.469,113.968 119.979,112.098 121.822 M279.208 120.138 C 279.301 120.192,280.086 120.859,280.952 121.619 L 282.527 123.001 281.166 121.520 C 280.418 120.706,279.633 120.039,279.422 120.039 C 279.212 120.039,279.115 120.084,279.208 120.138 M163.664 125.271 L 160.118 128.924 163.858 125.370 C 165.914 123.416,167.676 121.772,167.773 121.718 C 167.870 121.663,167.783 121.619,167.580 121.619 C 167.376 121.619,165.614 123.263,163.664 125.271 M287.266 127.937 C 289.865 130.543,292.080 132.675,292.189 132.675 C 292.298 132.675,290.260 130.543,287.660 127.937 C 285.061 125.331,282.846 123.198,282.737 123.198 C 282.628 123.198,284.666 125.331,287.266 127.937 M230.191 125.666 C 231.159 126.698,232.003 127.542,232.066 127.542 C 232.363 127.542,232.049 127.187,230.306 125.551 L 228.430 123.791 230.191 125.666 M249.951 126.086 C 249.951 126.154,250.528 126.731,251.234 127.369 L 252.517 128.529 251.358 127.246 C 250.276 126.050,249.951 125.781,249.951 126.086 M153.401 135.142 C 148.891 139.725,148.430 140.261,151.787 137.018 C 158.567 130.467,158.878 130.159,159.476 129.408 C 160.828 127.708,159.261 129.187,153.401 135.142 M136.418 132.774 L 132.873 136.426 136.525 132.881 C 139.918 129.588,140.357 129.121,140.071 129.121 C 140.012 129.121,138.368 130.765,136.418 132.774 M101.065 132.577 L 99.704 134.057 101.185 132.696 C 102.563 131.430,102.847 131.096,102.545 131.096 C 102.479 131.096,101.813 131.762,101.065 132.577 M293.781 134.057 C 294.518 134.817,295.209 135.439,295.318 135.439 C 295.426 135.439,294.912 134.817,294.176 134.057 C 293.439 133.297,292.747 132.675,292.639 132.675 C 292.530 132.675,293.044 133.297,293.781 134.057 M260.020 135.834 C 261.528 137.354,262.851 138.598,262.960 138.598 C 263.069 138.598,261.923 137.354,260.415 135.834 C 258.906 134.314,257.583 133.070,257.474 133.070 C 257.366 133.070,258.511 134.314,260.020 135.834 M244.620 139.783 C 246.347 141.520,247.849 142.942,247.958 142.942 C 248.066 142.942,246.742 141.520,245.015 139.783 C 243.288 138.045,241.786 136.624,241.677 136.624 C 241.568 136.624,242.893 138.045,244.620 139.783 M265.745 141.560 C 267.144 142.971,268.378 144.126,268.487 144.126 C 268.595 144.126,267.539 142.971,266.140 141.560 C 264.741 140.148,263.508 138.993,263.399 138.993 C 263.290 138.993,264.346 140.148,265.745 141.560 M301.283 141.560 C 302.020 142.320,302.712 142.942,302.820 142.942 C 302.929 142.942,302.415 142.320,301.678 141.560 C 300.941 140.800,300.250 140.178,300.141 140.178 C 300.033 140.178,300.547 140.800,301.283 141.560 M86.269 146.989 L 83.119 150.247 86.377 147.097 C 88.169 145.365,89.635 143.899,89.635 143.839 C 89.635 143.551,89.194 143.964,86.269 146.989 M271.866 147.285 C 273.593 149.023,275.095 150.444,275.204 150.444 C 275.312 150.444,273.988 149.023,272.261 147.285 C 270.533 145.548,269.031 144.126,268.923 144.126 C 268.814 144.126,270.139 145.548,271.866 147.285 M251.514 146.594 C 253.150 148.338,253.504 148.651,253.504 148.355 C 253.504 148.291,252.660 147.447,251.629 146.479 L 249.753 144.719 251.514 146.594 M305.627 145.526 C 305.627 145.769,306.881 147.003,308.611 148.462 C 309.250 149.001,308.891 148.512,307.813 147.376 C 305.858 145.316,305.627 145.120,305.627 145.526 M121.203 147.581 L 119.842 149.062 121.323 147.701 C 122.701 146.435,122.985 146.101,122.684 146.101 C 122.618 146.101,121.951 146.767,121.203 147.581 M137.207 150.938 L 134.057 154.195 137.315 151.046 C 139.107 149.313,140.573 147.848,140.573 147.788 C 140.573 147.500,140.132 147.912,137.207 150.938 M311.200 151.333 C 311.297 151.387,312.970 152.942,314.918 154.788 L 318.460 158.144 315.112 154.689 C 313.271 152.789,311.598 151.234,311.394 151.234 C 311.190 151.234,311.103 151.278,311.200 151.333 M262.192 156.894 C 264.689 159.456,267.088 161.743,267.522 161.975 C 267.957 162.207,268.223 162.328,268.115 162.243 C 268.006 162.159,265.607 159.872,262.784 157.162 L 257.651 152.235 262.192 156.894 M110.159 158.243 L 106.811 161.698 110.267 158.350 C 113.476 155.241,113.901 154.788,113.614 154.788 C 113.555 154.788,112.000 156.343,110.159 158.243 M73.042 159.822 L 69.694 163.277 73.149 159.930 C 76.358 156.821,76.784 156.367,76.497 156.367 C 76.438 156.367,74.883 157.922,73.042 159.822 M130.391 157.379 C 129.895 157.908,129.641 158.342,129.828 158.342 C 130.015 158.342,130.586 157.897,131.096 157.354 C 131.606 156.811,131.859 156.378,131.658 156.391 C 131.457 156.405,130.887 156.849,130.391 157.379 M324.861 164.253 C 328.381 167.824,331.313 170.664,331.376 170.565 C 331.439 170.466,328.559 167.545,324.975 164.073 L 318.460 157.761 324.861 164.253 M123.981 163.771 L 119.842 168.016 124.087 163.877 C 126.422 161.600,128.332 159.690,128.332 159.632 C 128.332 159.347,127.826 159.828,123.981 163.771 M270.484 164.857 C 271.663 166.051,272.717 167.029,272.826 167.029 C 272.935 167.029,272.058 166.051,270.879 164.857 C 269.699 163.662,268.645 162.685,268.536 162.685 C 268.428 162.685,269.304 163.662,270.484 164.857 M290.819 165.844 C 292.547 167.581,294.049 169.003,294.157 169.003 C 294.266 169.003,292.941 167.581,291.214 165.844 C 289.487 164.107,287.985 162.685,287.876 162.685 C 287.768 162.685,289.092 164.107,290.819 165.844 M66.752 166.021 L 64.995 168.016 66.931 166.154 C 67.995 165.130,68.786 164.232,68.688 164.159 C 68.590 164.086,67.719 164.923,66.752 166.021 M97.719 170.286 L 94.965 173.149 97.828 170.396 C 99.403 168.881,100.691 167.593,100.691 167.533 C 100.691 167.243,100.276 167.627,97.719 170.286 M276.407 170.780 C 278.243 172.626,279.834 174.136,279.943 174.136 C 280.052 174.136,278.638 172.626,276.802 170.780 C 274.965 168.934,273.374 167.423,273.265 167.423 C 273.157 167.423,274.570 168.934,276.407 170.780 M59.980 172.364 C 57.895 174.425,56.299 176.111,56.434 176.111 C 56.569 176.111,58.360 174.423,60.415 172.359 C 62.469 170.296,64.065 168.610,63.961 168.613 C 63.856 168.616,62.065 170.304,59.980 172.364 M297.927 172.557 C 299.872 174.511,301.553 176.111,301.662 176.111 C 301.770 176.111,300.267 174.511,298.322 172.557 C 296.376 170.602,294.696 169.003,294.587 169.003 C 294.478 169.003,295.981 170.602,297.927 172.557 M116.464 171.273 L 115.104 172.754 116.584 171.393 C 117.399 170.645,118.065 169.979,118.065 169.913 C 118.065 169.611,117.731 169.895,116.464 171.273 M109.661 177.503 C 106.884 180.212,104.754 182.428,104.928 182.428 C 105.102 182.428,107.460 180.207,110.168 177.493 C 112.876 174.778,115.006 172.562,114.900 172.568 C 114.795 172.574,112.437 174.795,109.661 177.503 M340.947 179.948 C 342.890 181.950,344.563 183.505,344.665 183.403 C 344.767 183.301,344.771 183.174,344.674 183.119 C 344.577 183.065,342.904 181.510,340.956 179.664 L 337.414 176.308 340.947 179.948 M83.901 183.712 L 80.355 187.364 84.008 183.819 C 87.400 180.526,87.840 180.059,87.553 180.059 C 87.495 180.059,85.851 181.703,83.901 183.712 M289.635 183.613 C 291.362 185.350,292.864 186.772,292.973 186.772 C 293.081 186.772,291.757 185.350,290.030 183.613 C 288.302 181.876,286.800 180.454,286.692 180.454 C 286.583 180.454,287.908 181.876,289.635 183.613 M103.119 183.861 C 102.609 184.405,102.266 184.925,102.358 185.017 C 102.450 185.109,103.034 184.653,103.656 184.004 C 104.278 183.355,104.621 182.834,104.417 182.847 C 104.214 182.861,103.630 183.317,103.119 183.861 M41.254 190.819 L 38.105 194.077 41.362 190.927 C 43.154 189.195,44.620 187.729,44.620 187.670 C 44.620 187.382,44.180 187.794,41.254 190.819 M299.901 193.485 C 303.154 196.742,305.903 199.408,306.012 199.408 C 306.120 199.408,303.548 196.742,300.296 193.485 C 297.044 190.227,294.294 187.562,294.186 187.562 C 294.077 187.562,296.649 190.227,299.901 193.485 M316.964 191.108 C 318.965 193.156,320.654 194.750,320.718 194.652 C 320.783 194.553,319.146 192.877,317.081 190.928 L 313.327 187.385 316.964 191.108 M354.082 192.687 C 356.082 194.735,357.772 196.330,357.836 196.231 C 357.900 196.132,356.263 194.457,354.198 192.508 L 350.444 188.964 354.082 192.687 M69.491 197.730 L 64.561 202.764 69.595 197.834 C 74.272 193.255,74.809 192.695,74.525 192.695 C 74.468 192.695,72.202 194.961,69.491 197.730 M35.525 196.150 L 33.366 198.421 35.637 196.262 C 36.885 195.075,37.907 194.053,37.907 193.992 C 37.907 193.699,37.530 194.041,35.525 196.150 M88.648 198.058 L 86.278 200.262 88.746 198.196 C 90.941 196.359,91.454 195.852,91.115 195.855 C 91.061 195.855,89.951 196.847,88.648 198.058 M328.529 202.369 C 331.237 205.084,333.542 207.305,333.651 207.305 C 333.759 207.305,331.632 205.084,328.924 202.369 C 326.216 199.654,323.911 197.433,323.803 197.433 C 323.694 197.433,325.821 199.654,328.529 202.369 M359.909 198.556 C 360.106 198.903,359.615 199.724,358.492 200.925 L 356.774 202.764 358.730 200.896 C 360.357 199.342,360.595 198.943,360.147 198.527 C 359.709 198.120,359.664 198.125,359.909 198.556 M33.169 198.854 C 33.169 199.056,35.612 201.618,38.598 204.546 L 44.028 209.872 38.697 204.357 C 35.765 201.324,33.322 198.762,33.268 198.664 C 33.213 198.567,33.169 198.652,33.169 198.854 M80.841 205.635 L 77.394 209.098 77.394 263.601 C 77.394 305.466,77.504 318.215,77.868 318.578 C 78.406 319.117,168.413 319.293,168.745 318.756 C 168.845 318.593,148.466 318.460,123.457 318.460 L 77.986 318.460 77.886 263.780 L 77.786 209.100 81.234 205.636 C 83.131 203.731,84.594 202.172,84.485 202.172 C 84.376 202.172,82.736 203.730,80.841 205.635 M55.944 210.674 C 52.942 213.599,50.613 215.992,50.767 215.992 C 50.921 215.992,53.486 213.593,56.466 210.661 C 59.446 207.730,61.776 205.336,61.643 205.344 C 61.510 205.351,58.946 207.749,55.944 210.674 M313.903 207.009 C 314.871 208.040,315.715 208.885,315.778 208.885 C 316.075 208.885,315.761 208.530,314.018 206.894 L 312.142 205.133 313.903 207.009 M347.285 211.638 C 342.906 215.996,342.979 215.967,340.998 214.137 L 339.388 212.649 341.015 214.362 C 342.372 215.791,342.764 216.007,343.384 215.666 C 344.144 215.247,351.371 208.092,351.028 208.098 C 350.924 208.100,349.240 209.692,347.285 211.638 M223.987 271.753 C 223.891 317.421,223.903 318.242,224.656 318.645 C 225.880 319.300,315.599 319.011,315.732 318.351 C 315.788 318.075,315.744 318.030,315.633 318.253 C 315.392 318.739,225.544 318.819,224.780 318.333 C 224.392 318.087,224.266 308.143,224.186 271.646 L 224.084 225.271 223.987 271.753 " stroke="none" fill="#74a4dc" fill-rule="evenodd"></path><path id="path4" d="M191.754 44.041 C 189.173 46.546,187.136 48.669,187.226 48.759 C 187.315 48.849,189.338 46.984,191.720 44.614 C 196.453 39.907,196.956 39.682,198.669 41.515 C 199.305 42.197,199.914 42.666,200.022 42.558 C 200.243 42.336,197.199 39.487,196.741 39.487 C 196.578 39.487,194.334 41.536,191.754 44.041 M204.489 47.162 C 206.355 48.994,207.948 50.427,208.030 50.345 C 208.231 50.143,201.826 43.830,201.420 43.830 C 201.242 43.830,202.623 45.329,204.489 47.162 M177.088 58.539 L 173.939 61.797 177.196 58.647 C 180.222 55.722,180.634 55.281,180.346 55.281 C 180.287 55.281,178.821 56.747,177.088 58.539 M172.625 62.592 C 171.410 63.991,171.555 64.386,172.794 63.050 C 173.359 62.441,173.745 61.866,173.653 61.774 C 173.560 61.681,173.098 62.049,172.625 62.592 M165.977 69.102 C 163.118 71.925,160.899 74.235,161.047 74.235 C 161.194 74.235,163.619 71.925,166.436 69.102 C 169.253 66.278,171.472 63.969,171.366 63.969 C 171.261 63.970,168.836 66.279,165.977 69.102 M222.310 64.228 C 222.310 64.600,234.677 76.604,235.059 76.604 C 235.195 76.604,228.194 69.591,222.478 64.001 C 222.386 63.911,222.310 64.013,222.310 64.228 M190.721 80.267 C 187.572 83.363,182.090 88.704,178.539 92.135 C 174.988 95.566,172.145 98.436,172.221 98.513 C 172.374 98.666,178.869 92.447,189.620 81.852 C 193.466 78.061,196.798 75.073,197.023 75.213 C 197.249 75.352,197.433 75.278,197.433 75.048 C 197.433 73.958,196.014 75.062,190.721 80.267 M145.078 89.536 C 139.849 94.694,137.007 97.558,138.763 95.901 C 144.322 90.654,154.993 80.173,154.785 80.166 C 154.676 80.161,150.307 84.378,145.078 89.536 M213.734 91.337 C 218.714 96.290,222.858 100.275,222.942 100.191 C 223.070 100.063,205.599 82.899,204.906 82.470 C 204.780 82.393,208.753 86.383,213.734 91.337 M250.740 92.201 C 251.477 92.962,252.169 93.583,252.277 93.583 C 252.386 93.583,251.872 92.962,251.135 92.201 C 250.399 91.441,249.707 90.819,249.598 90.819 C 249.490 90.819,250.004 91.441,250.740 92.201 M253.504 94.429 C 253.504 94.749,260.367 101.462,260.529 101.300 C 260.601 101.228,260.226 100.751,259.695 100.239 C 259.164 99.728,257.554 98.159,256.117 96.754 C 254.680 95.348,253.504 94.302,253.504 94.429 M189.204 99.764 C 187.610 101.393,186.375 102.795,186.461 102.881 C 186.547 102.966,188.025 101.620,189.745 99.889 C 191.466 98.159,192.700 96.756,192.488 96.773 C 192.276 96.790,190.798 98.136,189.204 99.764 M202.567 98.461 C 202.567 98.637,205.365 101.475,208.786 104.768 C 212.206 108.061,217.928 113.600,221.500 117.076 C 225.072 120.552,227.737 123.045,227.423 122.616 C 227.108 122.187,224.201 119.255,220.962 116.101 C 217.723 112.946,213.795 109.121,212.233 107.601 C 210.671 106.081,207.857 103.331,205.980 101.489 C 204.103 99.648,202.567 98.285,202.567 98.461 M124.351 109.509 C 111.450 121.912,108.894 124.425,109.033 124.564 C 109.117 124.649,111.779 122.199,114.948 119.121 C 118.117 116.043,122.533 111.782,124.762 109.652 C 126.991 107.523,128.750 105.716,128.671 105.637 C 128.592 105.558,126.648 107.301,124.351 109.509 M266.535 107.123 C 266.535 107.518,272.476 113.441,272.673 113.243 C 272.759 113.157,271.413 111.679,269.682 109.959 C 267.951 108.238,266.535 106.962,266.535 107.123 M173.939 114.715 C 170.464 118.065,167.766 120.811,167.942 120.818 C 168.119 120.824,171.051 118.078,174.458 114.716 C 177.864 111.354,180.563 108.607,180.454 108.613 C 180.346 108.619,177.414 111.365,173.939 114.715 M155.710 114.215 C 154.191 115.790,151.136 118.810,148.922 120.928 C 146.708 123.045,145.014 124.778,145.158 124.778 C 145.678 124.778,158.897 111.776,158.639 111.518 C 158.547 111.427,157.230 112.640,155.710 114.215 M276.209 116.881 C 277.937 118.618,279.439 120.039,279.547 120.039 C 279.656 120.039,278.331 118.618,276.604 116.881 C 274.877 115.143,273.375 113.722,273.266 113.722 C 273.158 113.722,274.482 115.143,276.209 116.881 M248.654 125.271 C 252.297 128.801,256.888 133.198,258.857 135.044 C 260.826 136.890,257.984 134.010,252.541 128.643 C 247.099 123.276,242.507 118.878,242.339 118.870 C 242.170 118.862,245.012 121.742,248.654 125.271 M280.081 120.237 C 280.827 121.237,292.384 132.625,292.517 132.491 C 292.600 132.408,291.345 131.038,289.728 129.447 C 285.283 125.075,279.749 119.791,280.081 120.237 M163.449 124.803 C 161.464 126.771,159.906 128.449,159.988 128.530 C 160.069 128.612,161.838 127.001,163.918 124.951 C 165.998 122.901,167.556 121.224,167.380 121.224 C 167.203 121.224,165.435 122.835,163.449 124.803 M228.233 123.262 C 228.233 123.614,241.404 136.615,241.581 136.438 C 241.663 136.356,240.229 134.810,238.394 133.001 C 230.046 124.772,228.233 123.034,228.233 123.262 M138.386 131.193 C 136.259 133.442,136.123 133.545,140.477 129.615 C 140.778 129.344,140.871 129.121,140.685 129.121 C 140.498 129.121,139.464 130.054,138.386 131.193 M95.806 137.243 C 92.360 140.615,89.606 143.439,89.687 143.520 C 89.828 143.662,98.287 135.502,101.065 132.545 C 104.017 129.401,101.771 131.408,95.806 137.243 M127.936 141.130 C 125.222 143.790,122.382 146.663,121.625 147.515 C 120.869 148.366,121.827 147.552,123.755 145.706 C 129.903 139.820,133.146 136.568,133.007 136.429 C 132.933 136.355,130.651 138.470,127.936 141.130 M302.270 142.152 C 303.998 143.889,305.500 145.311,305.608 145.311 C 305.717 145.311,304.393 143.889,302.665 142.152 C 300.938 140.415,299.436 138.993,299.328 138.993 C 299.219 138.993,300.543 140.415,302.270 142.152 M145.068 142.685 C 144.826 142.935,142.136 145.582,139.090 148.569 C 136.044 151.555,133.665 153.990,133.804 153.979 C 134.240 153.947,145.902 142.611,145.700 142.416 C 145.595 142.315,145.310 142.436,145.068 142.685 M258.243 152.697 C 263.129 157.493,267.198 161.350,267.284 161.269 C 267.474 161.090,259.640 153.416,253.702 147.965 C 251.313 145.772,253.356 147.901,258.243 152.697 M268.509 144.262 C 268.509 144.648,280.883 156.761,281.078 156.566 C 281.155 156.489,279.894 155.125,278.277 153.534 C 269.838 145.233,268.509 143.972,268.509 144.262 M307.802 147.240 C 310.666 150.330,318.260 157.724,318.751 157.901 C 319.184 158.057,315.974 154.840,309.537 148.667 C 307.498 146.713,306.718 146.070,307.802 147.240 M83.804 148.876 C 83.095 149.521,82.662 150.049,82.842 150.049 C 83.022 150.049,83.680 149.516,84.304 148.865 C 85.755 147.350,85.475 147.356,83.804 148.876 M80.243 152.245 C 79.746 152.775,79.493 153.208,79.680 153.208 C 79.867 153.208,80.438 152.764,80.948 152.221 C 81.458 151.678,81.711 151.245,81.510 151.258 C 81.309 151.271,80.739 151.716,80.243 152.245 M107.755 160.839 C 104.151 164.352,99.585 168.781,97.608 170.681 C 95.631 172.581,94.116 174.136,94.241 174.136 C 94.762 174.136,114.701 154.846,114.445 154.590 C 114.370 154.515,111.359 157.327,107.755 160.839 M76.755 155.691 C 76.512 155.954,73.509 158.883,70.082 162.198 C 66.654 165.514,63.936 168.312,64.041 168.417 C 64.146 168.522,65.475 167.320,66.994 165.745 C 68.514 164.171,71.569 161.150,73.783 159.033 C 75.997 156.915,77.671 155.189,77.503 155.198 C 77.334 155.206,76.998 155.428,76.755 155.691 M283.909 159.259 C 288.968 164.563,307.347 182.419,307.544 182.222 C 307.628 182.138,304.699 179.176,301.035 175.639 C 297.371 172.101,291.441 166.363,287.858 162.888 C 284.274 159.412,282.498 157.779,283.909 159.259 M327.937 167.029 C 329.664 168.766,331.166 170.188,331.275 170.188 C 331.383 170.188,330.059 168.766,328.332 167.029 C 326.604 165.291,325.102 163.870,324.994 163.870 C 324.885 163.870,326.210 165.291,327.937 167.029 M116.486 170.780 C 115.527 171.757,114.831 172.557,114.939 172.557 C 115.048 172.557,115.921 171.757,116.881 170.780 C 117.840 169.803,118.536 169.003,118.427 169.003 C 118.318 169.003,117.445 169.803,116.486 170.780 M331.688 170.305 C 331.688 170.466,332.843 171.752,334.255 173.164 C 335.666 174.575,336.821 175.589,336.821 175.415 C 336.821 175.242,335.666 173.956,334.255 172.557 C 332.843 171.158,331.688 170.144,331.688 170.305 M110.967 175.864 L 108.014 179.072 111.263 175.922 C 113.049 174.190,114.511 172.724,114.511 172.665 C 114.511 172.199,113.503 173.109,110.967 175.864 M340.958 179.599 C 342.690 181.372,344.185 182.823,344.278 182.823 C 344.564 182.823,340.258 178.347,338.993 177.329 C 338.342 176.804,339.226 177.826,340.958 179.599 M283.909 177.428 C 283.909 177.587,284.531 178.338,285.291 179.098 C 286.051 179.859,286.673 180.332,286.673 180.150 C 286.673 179.968,286.051 179.216,285.291 178.480 C 284.531 177.743,283.909 177.270,283.909 177.428 M77.959 189.843 C 72.515 195.212,69.672 198.102,71.641 196.265 C 78.048 190.290,88.414 180.044,88.025 180.070 C 87.933 180.077,83.403 184.474,77.959 189.843 M290.018 183.601 C 291.739 185.332,293.217 186.678,293.302 186.592 C 293.500 186.395,287.577 180.454,287.182 180.454 C 287.021 180.454,288.297 181.870,290.018 183.601 M41.551 189.861 C 31.613 199.543,32.019 198.801,35.046 201.741 C 41.383 207.899,45.374 211.649,45.589 211.649 C 45.721 211.649,42.981 208.872,39.499 205.479 C 36.017 202.086,33.169 199.125,33.169 198.898 C 33.169 198.470,33.978 197.658,44.373 187.644 C 47.821 184.323,50.573 181.537,50.490 181.454 C 50.406 181.370,46.384 185.153,41.551 189.861 M100.885 185.591 C 100.262 186.241,99.884 186.772,100.043 186.772 C 100.450 186.772,102.391 184.786,102.185 184.580 C 102.092 184.487,101.507 184.942,100.885 185.591 M93.959 192.609 C 89.333 197.332,89.983 196.762,97.829 189.214 C 98.578 188.493,99.120 187.833,99.033 187.746 C 98.946 187.660,96.663 189.848,93.959 192.609 M301.788 194.864 C 305.866 198.943,309.267 202.212,309.345 202.128 C 309.423 202.043,306.086 198.705,301.930 194.710 L 294.373 187.446 301.788 194.864 M354.135 192.399 C 356.215 194.408,358.501 196.664,359.215 197.412 C 359.929 198.160,360.511 198.604,360.507 198.399 C 360.501 198.042,350.893 188.746,350.529 188.746 C 350.432 188.746,352.055 190.390,354.135 192.399 M322.413 196.841 C 329.826 204.251,336.068 210.164,336.266 209.966 C 336.366 209.866,335.687 209.116,334.759 208.297 C 333.830 207.479,330.316 204.122,326.950 200.838 C 323.583 197.553,320.119 194.244,319.251 193.484 C 318.383 192.724,319.806 194.235,322.413 196.841 M82.823 203.165 L 76.999 208.886 76.999 263.693 C 76.999 305.794,77.109 318.609,77.473 318.973 C 78.011 319.512,169.003 319.688,169.003 319.151 C 169.003 318.988,148.633 318.901,123.736 318.957 C 90.513 319.032,78.327 318.940,77.932 318.612 C 77.483 318.239,77.394 309.174,77.394 263.585 L 77.394 209.004 81.836 204.656 C 86.766 199.831,89.090 197.431,88.824 197.439 C 88.727 197.441,86.027 200.018,82.823 203.165 M358.913 200.888 L 357.552 202.369 359.033 201.008 C 360.411 199.742,360.695 199.408,360.393 199.408 C 360.327 199.408,359.661 200.074,358.913 200.888 M313.840 206.683 C 314.857 207.644,315.757 208.362,315.841 208.279 C 316.048 208.072,312.755 204.936,312.330 204.936 C 312.144 204.936,312.823 205.722,313.840 206.683 M58.243 208.885 C 56.516 210.622,55.223 212.043,55.370 212.043 C 55.517 212.043,57.055 210.622,58.787 208.885 C 60.520 207.147,61.813 205.726,61.661 205.726 C 61.508 205.726,59.970 207.147,58.243 208.885 M347.228 212.067 C 345.025 214.247,343.374 215.977,343.560 215.912 C 344.053 215.740,351.832 208.094,351.508 208.100 C 351.357 208.102,349.431 209.888,347.228 212.067 M53.286 213.853 C 51.424 215.788,50.652 216.166,49.827 215.548 C 49.208 215.084,49.207 215.099,49.806 215.756 C 50.299 216.297,50.624 216.369,51.188 216.062 C 51.960 215.641,55.193 212.438,54.847 212.438 C 54.737 212.438,54.034 213.075,53.286 213.853 M223.975 318.718 C 224.173 319.310,314.967 319.741,315.556 319.153 C 315.720 318.989,295.508 318.901,270.642 318.957 C 238.200 319.030,225.199 318.936,224.614 318.622 C 223.968 318.277,223.835 318.297,223.975 318.718 " stroke="none" fill="#5c94d4" fill-rule="evenodd"></path></g></svg>