<svg id="svg" version="1.1" xmlns="http://www.w3.org/2000/svg" xmlns:xlink="http://www.w3.org/1999/xlink" width="400" height="400" viewBox="0, 0, 400,400"><g id="svgg"><path id="path0" d="M242.884 20.505 L 235.968 20.919 236.084 23.960 L 236.200 27.000 242.800 27.200 L 249.400 27.400 249.600 30.800 L 249.800 34.200 256.800 34.200 L 263.800 34.200 263.910 27.757 C 263.992 22.914,263.893 21.210,263.510 20.895 C 262.741 20.262,250.732 20.035,242.884 20.505 M161.000 20.773 L 157.000 21.000 156.884 24.036 L 156.769 27.073 146.909 27.334 C 135.666 27.632,136.415 27.335,136.406 31.491 L 136.400 34.382 129.100 34.491 L 121.800 34.600 121.684 37.885 L 121.568 41.169 118.084 41.285 L 114.600 41.400 114.400 44.600 L 114.200 47.800 110.800 47.800 L 107.400 47.800 107.303 42.000 C 107.249 38.810,107.111 35.795,106.995 35.300 L 106.785 34.400 85.992 34.400 C 74.557 34.400,65.161 34.445,65.113 34.500 C 65.065 34.555,64.930 40.810,64.813 48.400 L 64.600 62.200 50.600 62.400 L 36.600 62.600 36.329 96.600 C 36.181 115.300,35.943 132.167,35.801 134.083 L 35.542 137.566 32.671 137.683 L 29.800 137.800 29.504 147.835 C 29.341 153.354,29.341 167.304,29.504 178.835 L 29.800 199.800 32.600 200.000 L 35.400 200.200 35.650 207.400 C 35.788 211.360,35.923 221.916,35.950 230.857 C 35.994 245.283,36.071 247.142,36.633 247.357 C 36.981 247.491,41.796 247.618,47.333 247.640 C 52.870 247.662,58.930 247.797,60.800 247.940 L 64.200 248.200 64.600 254.800 L 65.000 261.400 75.400 261.600 L 85.800 261.800 86.000 268.200 L 86.200 274.600 96.600 274.800 L 107.000 275.000 107.115 278.485 L 107.231 281.969 110.715 282.085 L 114.200 282.200 114.400 285.400 L 114.600 288.600 124.787 288.707 C 131.109 288.773,135.131 288.971,135.387 289.227 C 135.657 289.497,135.869 297.774,136.000 313.120 L 136.200 336.600 150.300 336.705 L 164.400 336.810 164.451 339.705 C 164.561 345.898,164.775 350.036,165.006 350.410 C 165.153 350.647,169.238 350.800,175.424 350.800 L 185.600 350.800 185.600 353.367 C 185.600 357.209,185.592 357.200,189.163 357.200 C 193.326 357.200,193.200 356.966,193.200 364.671 L 193.200 371.181 200.100 371.291 L 207.000 371.400 207.110 377.700 L 207.220 384.000 217.593 384.000 L 227.965 384.000 228.082 381.100 L 228.200 378.200 231.464 378.084 C 235.813 377.930,235.568 378.564,235.693 367.168 L 235.800 357.400 239.200 357.200 L 242.600 357.000 242.800 354.000 L 243.000 351.000 253.400 350.800 L 263.800 350.600 263.904 333.500 L 264.009 316.400 253.904 316.394 C 248.347 316.391,243.577 316.246,243.305 316.074 C 242.932 315.837,242.785 312.473,242.705 302.380 L 242.600 289.000 221.800 288.912 C 210.360 288.864,199.380 288.684,197.400 288.512 L 193.800 288.200 193.600 285.400 L 193.400 282.600 189.600 282.400 L 185.800 282.200 185.703 276.200 C 185.650 272.900,185.511 269.794,185.395 269.297 L 185.183 268.394 160.692 268.497 L 136.200 268.600 136.000 275.400 L 135.800 282.200 128.800 282.200 L 121.800 282.200 121.685 278.500 L 121.570 274.800 118.409 274.800 C 114.553 274.800,114.810 275.233,114.565 268.312 C 114.454 265.170,114.287 262.375,114.194 262.100 C 114.068 261.727,112.346 261.600,107.413 261.600 L 100.800 261.600 100.748 259.100 C 100.719 257.725,100.584 253.180,100.448 249.000 L 100.200 241.400 93.000 241.000 L 85.800 240.600 85.600 237.200 L 85.400 233.800 78.705 233.690 L 72.010 233.581 71.747 232.532 C 71.514 231.604,71.901 213.166,72.159 212.908 C 72.215 212.851,76.785 212.686,82.314 212.539 L 92.368 212.273 92.484 209.436 L 92.600 206.600 95.600 206.493 C 97.250 206.433,100.490 206.523,102.800 206.693 L 107.000 207.000 107.400 213.400 L 107.800 219.800 110.935 219.800 L 114.069 219.800 114.281 209.800 C 114.526 198.251,114.328 198.800,118.249 198.800 L 121.200 198.800 121.200 196.400 C 121.200 195.067,121.022 194.000,120.800 194.000 C 120.580 194.000,120.400 194.900,120.400 196.000 L 120.400 198.000 118.633 198.000 C 117.661 198.000,116.597 198.103,116.268 198.229 C 115.783 198.415,115.645 197.963,115.535 195.828 L 115.400 193.198 118.200 193.186 C 120.027 193.179,121.270 192.970,121.776 192.587 C 122.305 192.188,123.548 192.000,125.666 192.000 L 128.779 192.000 128.973 178.700 C 129.079 171.385,129.219 163.870,129.283 162.000 L 129.400 158.600 115.000 158.400 L 100.600 158.200 100.502 124.800 C 100.448 106.430,100.538 89.420,100.702 87.000 L 101.000 82.600 111.284 82.493 L 121.568 82.387 121.684 79.093 L 121.800 75.800 125.400 75.800 L 129.000 75.800 129.107 86.100 L 129.214 96.400 142.980 96.400 C 159.156 96.400,157.397 97.269,157.003 89.475 C 156.641 82.332,156.880 82.800,153.597 82.800 C 150.117 82.800,150.259 83.161,150.601 75.166 L 150.892 68.400 153.585 68.400 L 156.278 68.400 156.537 63.900 C 156.680 61.425,156.797 55.395,156.798 50.500 L 156.800 41.600 153.849 41.600 C 150.141 41.600,149.927 41.370,150.082 37.537 L 150.200 34.600 156.899 34.250 C 165.012 33.826,164.780 33.718,164.852 37.949 C 164.881 39.627,165.032 42.350,165.188 44.000 L 165.471 47.000 165.535 44.500 L 165.600 42.000 168.200 42.000 L 170.800 42.000 170.800 44.520 C 170.800 45.906,170.993 47.233,171.228 47.468 C 171.505 47.745,171.752 52.829,171.928 61.848 L 172.200 75.800 182.400 75.800 L 192.600 75.800 192.861 62.259 C 193.156 46.991,192.872 48.081,196.600 47.920 L 199.400 47.800 199.400 41.400 L 199.400 35.000 197.000 34.897 C 192.665 34.711,192.847 34.881,192.716 30.896 L 192.600 27.400 185.600 27.200 L 178.600 27.000 178.400 23.800 L 178.200 20.600 171.600 20.573 C 167.970 20.558,163.200 20.648,161.000 20.773 M264.243 35.033 C 263.781 36.237,263.984 40.288,264.529 40.741 C 264.852 41.009,267.612 41.222,271.629 41.290 L 278.200 41.400 278.304 61.838 L 278.407 82.275 288.645 82.512 C 294.276 82.643,298.936 82.806,299.001 82.875 C 299.067 82.944,299.273 85.970,299.460 89.600 L 299.800 96.200 310.295 96.307 L 320.789 96.413 320.895 109.907 L 321.000 123.400 324.181 123.518 C 328.174 123.667,328.340 123.814,328.483 127.335 L 328.600 130.200 334.600 130.315 C 337.900 130.378,340.998 130.331,341.484 130.211 L 342.368 129.993 342.284 119.896 L 342.200 109.800 352.800 109.800 L 363.400 109.800 363.508 106.800 C 363.598 104.328,363.764 103.677,364.453 103.100 C 364.912 102.715,365.104 102.400,364.878 102.400 C 364.653 102.400,364.408 101.230,364.334 99.799 C 364.254 98.245,364.361 97.196,364.600 97.193 C 364.820 97.190,364.730 97.017,364.400 96.809 C 363.887 96.485,363.771 93.966,363.600 79.515 L 363.400 62.600 349.660 62.495 C 333.601 62.372,334.216 62.515,334.338 58.913 C 334.440 55.877,334.244 55.665,331.190 55.521 L 328.600 55.400 328.383 45.000 C 328.264 39.280,328.129 34.555,328.083 34.500 C 327.630 33.954,264.454 34.482,264.243 35.033 M235.684 51.490 L 235.800 55.000 242.600 55.000 L 249.400 55.000 249.400 51.600 L 249.400 48.200 242.484 48.090 L 235.569 47.981 235.684 51.490 M164.800 109.584 C 164.800 113.113,164.755 116.135,164.700 116.300 C 164.645 116.465,166.179 116.652,168.110 116.716 L 171.619 116.831 171.510 110.116 L 171.400 103.400 168.100 103.284 L 164.800 103.168 164.800 109.584 M364.944 120.000 C 364.944 122.090,365.012 122.945,365.094 121.900 C 365.176 120.855,365.176 119.145,365.094 118.100 C 365.012 117.055,364.944 117.910,364.944 120.000 M171.817 123.453 C 171.464 131.038,170.822 130.426,179.000 130.299 L 185.400 130.200 185.400 127.200 L 185.400 124.200 181.900 124.084 C 178.011 123.956,178.225 124.160,178.383 120.725 C 178.537 117.385,178.361 117.200,175.027 117.200 L 172.107 117.200 171.817 123.453 M349.570 124.291 C 349.553 124.461,349.508 139.810,349.470 158.400 L 349.400 192.200 339.000 192.400 L 328.600 192.600 328.496 209.644 L 328.391 226.688 334.896 226.975 C 338.473 227.132,341.554 227.410,341.743 227.593 C 341.931 227.776,342.201 233.837,342.343 241.063 L 342.600 254.200 346.085 254.315 L 349.569 254.431 349.685 257.915 L 349.800 261.400 353.300 261.516 L 356.800 261.631 356.800 264.816 L 356.800 268.000 360.200 268.000 L 363.600 268.000 363.600 261.462 C 363.600 255.636,363.680 254.852,364.331 254.262 C 365.221 253.457,398.800 253.225,398.800 254.024 C 398.800 254.257,398.980 254.336,399.200 254.200 C 399.875 253.783,399.740 131.814,399.064 131.253 C 398.694 130.946,393.172 130.776,381.164 130.704 L 363.800 130.600 363.600 127.400 L 363.400 124.200 356.500 124.091 C 352.705 124.030,349.586 124.120,349.570 124.291 M114.882 233.941 C 114.512 234.176,114.398 235.173,114.482 237.435 L 114.600 240.600 118.200 240.600 L 121.800 240.600 121.918 237.435 C 122.002 235.173,121.888 234.176,121.518 233.941 C 120.845 233.514,115.555 233.514,114.882 233.941 M129.200 244.157 C 129.200 247.514,129.280 247.600,132.400 247.600 C 135.520 247.600,135.600 247.514,135.600 244.157 L 135.600 241.200 132.400 241.200 L 129.200 241.200 129.200 244.157 M143.290 247.484 L 143.400 253.800 146.800 253.800 L 150.200 253.800 150.200 247.600 L 150.200 241.400 146.690 241.284 L 143.180 241.169 143.290 247.484 M34.985 296.600 C 34.985 307.380,35.037 311.733,35.100 306.272 C 35.163 300.812,35.163 291.992,35.100 286.672 C 35.037 281.353,34.985 285.820,34.985 296.600 M364.985 296.600 C 364.985 307.380,365.037 311.733,365.100 306.272 C 365.163 300.812,365.163 291.992,365.100 286.672 C 365.037 281.353,364.985 285.820,364.985 296.600 " stroke="none" fill="#4a8d0b" fill-rule="evenodd"></path><path id="path1" d="M199.820 35.240 C 199.695 35.768,199.550 38.900,199.497 42.200 L 199.400 48.200 196.700 48.318 L 194.000 48.437 193.994 50.918 C 193.991 52.283,193.700 54.210,193.347 55.200 C 192.802 56.730,192.743 58.292,192.951 65.600 C 193.085 70.330,193.085 74.605,192.951 75.100 L 192.707 76.000 182.396 76.000 C 173.363 76.000,172.056 75.922,171.843 75.367 C 171.709 75.019,171.600 68.845,171.600 61.647 C 171.600 46.624,171.866 47.600,167.770 47.600 L 164.900 47.600 164.550 41.300 L 164.200 35.000 158.200 34.885 C 150.040 34.729,150.400 34.585,150.400 38.008 L 150.400 40.800 153.351 40.800 C 155.230 40.800,156.448 40.982,156.705 41.300 C 157.205 41.920,157.366 59.877,156.919 65.200 L 156.600 69.000 153.930 69.118 L 151.260 69.235 151.019 72.518 C 150.887 74.323,150.739 77.240,150.690 79.000 L 150.600 82.200 153.600 82.400 L 156.600 82.600 156.909 87.200 C 157.079 89.730,157.169 92.829,157.109 94.087 L 157.000 96.374 160.600 96.487 L 164.200 96.600 164.313 100.000 L 164.426 103.400 167.972 103.273 L 171.519 103.145 171.810 109.957 L 172.101 116.768 175.150 116.884 L 178.200 117.000 178.400 120.400 L 178.600 123.800 182.100 123.916 L 185.600 124.031 185.600 127.225 L 185.600 130.418 178.500 130.309 L 171.400 130.200 171.400 123.800 L 171.400 117.400 167.899 117.200 L 164.398 117.000 164.399 137.700 L 164.400 158.400 146.700 158.479 C 136.965 158.523,130.345 158.622,131.988 158.699 C 135.450 158.861,135.586 158.989,135.594 162.092 C 135.601 164.724,135.092 165.072,131.784 164.699 C 129.159 164.403,129.222 164.069,129.105 178.834 L 129.000 192.200 125.400 192.400 L 121.800 192.600 121.600 196.000 L 121.400 199.400 118.212 199.518 C 116.284 199.590,114.904 199.827,114.718 200.118 C 114.342 200.711,114.314 208.058,114.663 214.900 L 114.923 220.000 118.019 220.000 C 121.612 220.000,121.600 219.987,121.600 223.848 L 121.600 226.431 118.100 226.316 L 114.600 226.200 114.526 223.800 C 114.486 222.480,114.441 221.182,114.426 220.916 C 114.408 220.585,113.291 220.395,110.900 220.316 L 107.400 220.200 107.286 216.543 C 107.155 212.356,107.214 212.415,103.118 212.405 L 100.835 212.400 100.718 209.500 L 100.600 206.600 97.208 206.482 C 93.116 206.340,92.800 206.608,92.800 210.212 L 92.800 212.672 82.772 212.930 C 77.256 213.072,72.576 213.291,72.372 213.417 C 72.159 213.549,72.000 217.907,72.000 223.624 L 72.000 233.600 78.757 233.600 C 86.540 233.600,86.000 233.284,86.000 237.833 L 86.000 240.800 92.976 240.800 C 96.813 240.800,100.033 240.935,100.131 241.100 C 100.229 241.265,100.536 245.746,100.814 251.059 L 101.320 260.717 106.560 260.975 C 109.442 261.117,112.475 261.331,113.300 261.452 L 114.800 261.670 114.800 264.586 C 114.800 268.133,114.986 268.323,118.617 268.480 L 121.400 268.600 121.538 271.400 C 121.614 272.940,121.794 275.910,121.938 278.000 L 122.200 281.800 128.900 281.910 C 134.111 281.995,135.604 281.906,135.619 281.510 C 135.629 281.229,135.628 278.390,135.615 275.200 C 135.603 272.010,135.729 269.192,135.896 268.938 C 136.140 268.568,179.848 268.050,184.890 268.358 C 185.510 268.396,185.592 269.083,185.690 275.100 L 185.800 281.800 192.400 282.200 L 199.000 282.600 199.120 285.389 C 199.190 286.996,199.444 288.307,199.720 288.483 C 199.984 288.651,209.873 288.791,221.695 288.794 L 243.189 288.800 243.295 302.300 L 243.400 315.800 253.350 315.907 C 264.907 316.031,264.400 316.191,264.400 312.431 C 264.400 309.160,264.722 308.800,267.647 308.800 C 271.186 308.800,271.200 308.814,271.200 312.443 L 271.200 315.600 299.400 315.600 L 327.600 315.600 327.600 285.249 C 327.600 260.589,327.699 254.816,328.128 254.459 C 328.449 254.193,331.160 253.978,335.028 253.911 L 341.400 253.800 341.515 248.000 C 341.664 240.448,341.695 240.555,339.407 240.737 C 335.593 241.040,335.731 241.270,335.401 234.019 L 335.110 227.630 331.655 227.515 L 328.200 227.400 328.200 209.600 L 328.200 191.800 338.300 191.693 L 348.400 191.586 348.400 161.493 L 348.401 131.400 338.747 131.514 C 327.152 131.651,327.600 131.819,327.600 127.338 L 327.600 124.400 324.414 124.400 C 320.147 124.400,320.400 125.319,320.400 109.833 L 320.400 96.813 309.900 96.707 L 299.400 96.600 299.299 93.600 C 299.132 88.655,299.190 88.745,296.248 88.840 C 292.904 88.949,292.800 88.850,292.800 85.585 L 292.800 82.818 285.500 82.709 L 278.200 82.600 278.000 72.400 L 277.800 62.200 272.000 62.103 C 263.445 61.960,264.460 63.320,264.238 51.696 C 264.134 46.253,263.934 40.405,263.793 38.700 L 263.537 35.600 260.448 35.600 C 258.714 35.600,257.165 35.405,256.915 35.155 C 256.600 34.840,248.180 34.646,228.257 34.495 L 200.045 34.280 199.820 35.240 M261.700 40.289 C 260.985 40.378,259.815 40.378,259.100 40.289 C 258.385 40.201,258.970 40.128,260.400 40.128 C 261.830 40.128,262.415 40.201,261.700 40.289 M242.400 44.600 L 242.600 47.400 246.000 47.600 L 249.400 47.800 249.400 51.600 L 249.400 55.400 243.093 55.510 C 235.036 55.651,235.200 55.735,235.200 51.466 C 235.200 49.483,235.386 47.974,235.666 47.694 C 235.940 47.420,236.096 46.232,236.045 44.810 C 235.929 41.601,235.987 41.547,239.334 41.683 L 242.200 41.800 242.400 44.600 M122.519 75.918 C 122.235 76.099,121.990 77.444,121.919 79.212 L 121.800 82.200 111.852 82.476 C 106.381 82.627,101.664 82.843,101.371 82.956 C 100.962 83.113,100.809 84.732,100.718 89.880 L 100.600 96.600 114.800 96.491 L 129.000 96.382 128.891 86.491 C 128.831 81.051,128.702 76.375,128.604 76.100 C 128.405 75.543,123.348 75.391,122.519 75.918 M123.900 233.863 L 128.400 234.122 128.400 237.204 L 128.400 240.287 123.620 240.566 C 120.991 240.720,116.393 240.719,113.404 240.564 L 107.967 240.282 108.084 237.441 L 108.200 234.600 111.000 234.480 C 112.540 234.413,113.971 234.188,114.180 233.980 C 114.623 233.537,117.614 233.501,123.900 233.863 M135.519 241.141 C 135.887 241.375,136.003 242.334,135.919 244.435 L 135.800 247.400 132.400 247.400 L 129.000 247.400 128.880 244.640 C 128.815 243.122,128.854 241.637,128.968 241.340 C 129.202 240.730,134.613 240.567,135.519 241.141 M150.200 247.600 L 150.200 254.200 146.800 254.200 L 143.400 254.200 143.081 248.400 C 142.657 240.668,142.624 240.733,146.899 240.884 L 150.200 241.000 150.200 247.600 M36.168 248.140 C 36.054 248.437,36.015 249.922,36.080 251.440 L 36.200 254.200 47.000 254.200 L 57.800 254.200 57.919 251.235 C 58.003 249.134,57.887 248.175,57.519 247.941 C 56.564 247.336,36.404 247.523,36.168 248.140 M64.563 262.604 C 64.423 263.163,64.464 275.331,64.654 289.643 L 65.000 315.666 100.200 315.733 L 135.400 315.800 135.375 303.600 C 135.362 296.890,135.234 290.950,135.092 290.400 L 134.834 289.400 125.717 289.282 C 113.494 289.125,114.459 289.430,114.316 285.672 L 114.200 282.600 110.728 282.485 L 107.257 282.370 106.999 281.195 C 106.857 280.549,106.789 278.981,106.848 277.710 L 106.956 275.400 96.378 275.200 L 85.800 275.000 85.600 268.400 L 85.400 261.800 75.109 261.693 L 64.819 261.587 64.563 262.604 M136.400 343.709 L 136.400 350.232 150.000 350.305 L 163.600 350.378 163.601 346.889 L 163.601 343.400 161.175 343.537 C 157.007 343.772,156.854 343.661,156.717 340.297 L 156.600 337.400 146.500 337.293 L 136.400 337.186 136.400 343.709 " stroke="none" fill="#3a9cf1" fill-rule="evenodd"></path><path id="path2" d="M100.584 96.900 C 100.479 97.175,100.440 111.080,100.497 127.800 L 100.600 158.200 132.500 158.302 L 164.400 158.405 164.500 137.502 C 164.623 111.800,164.534 97.727,164.245 96.973 C 163.939 96.175,100.888 96.103,100.584 96.900 " stroke="none" fill="#fbfbfb" fill-rule="evenodd"></path><path id="path3" d="M134.800 16.598 L 134.800 33.196 99.300 33.298 L 63.800 33.400 63.695 47.300 L 63.590 61.200 49.675 61.200 C 39.386 61.200,35.635 61.325,35.280 61.680 C 34.914 62.046,34.800 70.190,34.800 95.896 L 34.800 129.633 17.851 129.516 C 4.973 129.428,0.793 129.516,0.450 129.884 C 0.117 130.241,0.024 148.580,0.099 199.684 L 0.200 269.000 13.900 269.105 L 27.600 269.211 27.600 272.325 C 27.600 276.275,27.733 276.400,31.929 276.400 L 35.297 276.400 35.088 303.159 C 34.938 322.369,35.003 330.043,35.319 330.359 C 35.617 330.657,39.098 330.800,46.080 330.800 L 56.400 330.800 56.400 334.400 L 56.400 338.000 60.000 338.000 L 63.600 338.000 63.600 351.456 C 63.600 363.802,63.658 364.956,64.300 365.443 C 64.868 365.874,70.905 365.977,96.283 365.987 L 127.566 366.000 127.683 369.100 L 127.800 372.200 131.295 372.315 L 134.790 372.431 134.895 386.115 L 135.000 399.800 200.100 399.901 L 265.200 400.002 265.200 386.217 L 265.200 372.431 268.700 372.316 L 272.200 372.200 272.317 369.100 L 272.434 366.000 300.317 365.987 C 324.561 365.976,328.304 365.896,329.000 365.370 C 329.996 364.617,329.892 366.205,329.950 351.000 L 330.000 338.000 333.200 338.000 L 336.400 338.000 336.400 334.400 L 336.400 330.800 350.320 330.800 C 360.137 330.800,364.373 330.667,364.692 330.348 C 365.024 330.016,365.082 323.060,364.909 304.225 C 364.630 273.764,364.307 276.400,368.328 276.400 C 372.238 276.400,372.400 276.238,372.400 272.320 L 372.400 269.200 386.200 269.200 L 400.000 269.200 400.000 199.300 L 400.000 129.400 382.661 129.516 L 365.322 129.632 365.083 125.405 C 364.951 123.080,364.952 117.403,365.084 112.789 L 365.325 104.400 368.863 104.400 L 372.400 104.400 372.400 100.080 C 372.400 94.822,372.383 94.800,368.324 94.800 L 365.209 94.800 365.104 78.100 L 365.000 61.400 350.715 61.295 L 336.431 61.190 336.315 57.695 L 336.200 54.200 333.100 54.083 L 330.000 53.966 330.000 44.383 C 330.000 39.112,330.045 34.742,330.100 34.671 C 330.155 34.601,329.898 34.241,329.529 33.871 C 328.911 33.254,326.292 33.200,297.029 33.200 L 265.200 33.200 265.200 16.600 L 265.200 0.000 200.000 0.000 L 134.800 0.000 134.800 16.598 M263.510 20.895 C 263.893 21.210,263.992 22.914,263.910 27.757 L 263.800 34.200 256.800 34.200 L 249.800 34.200 249.600 30.800 L 249.400 27.400 242.800 27.200 L 236.200 27.000 236.084 23.960 L 235.968 20.919 242.884 20.505 C 250.732 20.035,262.741 20.262,263.510 20.895 M178.400 23.800 L 178.600 27.000 185.600 27.200 L 192.600 27.400 192.716 30.896 C 192.848 34.897,192.577 34.660,197.300 34.901 C 198.831 34.978,200.000 34.874,200.000 34.659 C 200.000 34.089,256.340 34.580,256.915 35.155 C 257.165 35.405,258.714 35.600,260.448 35.600 L 263.537 35.600 263.793 38.700 C 263.934 40.405,264.134 46.253,264.238 51.696 C 264.460 63.320,263.445 61.960,272.000 62.103 L 277.800 62.200 278.000 72.400 L 278.200 82.600 285.500 82.709 L 292.800 82.818 292.800 85.585 C 292.800 88.850,292.904 88.949,296.248 88.840 C 299.190 88.745,299.132 88.655,299.299 93.600 L 299.400 96.600 309.900 96.707 L 320.400 96.813 320.400 109.833 C 320.400 125.319,320.147 124.400,324.414 124.400 L 327.600 124.400 327.600 127.338 C 327.600 131.819,327.152 131.651,338.747 131.514 L 348.401 131.400 348.400 161.493 L 348.400 191.586 338.300 191.693 L 328.200 191.800 328.200 209.600 L 328.200 227.400 331.655 227.515 L 335.110 227.630 335.401 234.019 C 335.731 241.270,335.593 241.040,339.407 240.737 C 341.695 240.555,341.664 240.448,341.515 248.000 L 341.400 253.800 335.028 253.911 C 331.160 253.978,328.449 254.193,328.128 254.459 C 327.699 254.816,327.600 260.589,327.600 285.249 L 327.600 315.600 299.400 315.600 L 271.200 315.600 271.200 312.443 C 271.200 308.814,271.186 308.800,267.647 308.800 C 264.722 308.800,264.400 309.160,264.400 312.431 C 264.400 316.191,264.907 316.031,253.350 315.907 L 243.400 315.800 243.295 302.300 C 243.237 294.875,243.057 288.800,242.895 288.800 C 242.353 288.799,242.763 315.729,243.311 316.077 C 243.580 316.248,248.347 316.391,253.904 316.394 L 264.009 316.400 263.904 333.500 L 263.800 350.600 253.400 350.800 L 243.000 351.000 242.800 354.000 L 242.600 357.000 239.200 357.200 L 235.800 357.400 235.693 367.168 C 235.568 378.564,235.813 377.930,231.464 378.084 L 228.200 378.200 228.200 381.400 L 228.200 384.600 245.700 384.704 L 263.200 384.808 263.200 391.604 L 263.200 398.400 200.000 398.400 L 136.800 398.400 136.800 391.602 L 136.800 384.804 171.900 384.702 L 207.000 384.600 207.000 378.000 L 207.000 371.400 200.100 371.291 L 193.200 371.181 193.200 364.671 C 193.200 356.966,193.326 357.200,189.163 357.200 C 185.592 357.200,185.600 357.209,185.600 353.367 L 185.600 350.800 175.424 350.800 C 169.238 350.800,165.153 350.647,165.006 350.410 C 164.775 350.036,164.561 345.898,164.451 339.705 L 164.400 336.810 150.300 336.705 L 136.200 336.600 136.000 313.200 C 135.890 300.330,135.654 289.575,135.476 289.300 C 135.230 288.919,132.799 288.816,125.276 288.867 L 115.400 288.934 124.400 289.231 C 129.350 289.394,133.709 289.444,134.087 289.341 C 135.207 289.037,135.349 290.609,135.375 303.600 L 135.400 315.800 100.200 315.733 L 65.000 315.666 64.651 289.533 C 64.452 274.599,64.453 262.971,64.653 262.400 C 65.106 261.106,64.339 248.297,63.800 248.162 C 62.759 247.901,57.196 247.750,57.589 247.993 C 57.874 248.169,57.994 249.355,57.919 251.235 L 57.800 254.200 47.000 254.200 L 36.200 254.200 36.082 251.263 C 36.008 249.442,36.141 248.112,36.431 247.763 C 36.767 247.358,36.772 247.200,36.449 247.200 C 36.125 247.200,35.986 242.656,35.950 230.900 C 35.923 221.935,35.788 211.360,35.650 207.400 L 35.400 200.200 32.600 200.000 L 29.800 199.800 29.504 178.835 C 29.341 167.304,29.341 153.354,29.504 147.835 L 29.800 137.800 32.671 137.683 L 35.542 137.566 35.801 134.083 C 35.943 132.167,36.181 115.300,36.329 96.600 L 36.600 62.600 50.600 62.400 L 64.600 62.200 64.813 48.400 C 64.930 40.810,65.065 34.555,65.113 34.500 C 65.161 34.445,74.557 34.400,85.992 34.400 L 106.785 34.400 106.995 35.300 C 107.111 35.795,107.249 38.810,107.303 42.000 L 107.400 47.800 110.800 47.800 L 114.200 47.800 114.400 44.600 L 114.600 41.400 118.084 41.285 L 121.568 41.169 121.684 37.885 L 121.800 34.600 129.100 34.491 L 136.400 34.382 136.406 31.491 C 136.415 27.335,135.666 27.632,146.909 27.334 L 156.769 27.073 156.884 24.036 L 157.000 21.000 161.000 20.773 C 163.200 20.648,167.970 20.558,171.600 20.573 L 178.200 20.600 178.400 23.800 M153.800 34.376 L 150.200 34.600 150.082 37.537 C 149.927 41.370,150.141 41.600,153.849 41.600 L 156.800 41.600 156.806 51.900 C 156.810 58.424,156.949 61.984,157.185 61.610 C 157.675 60.835,157.222 41.964,156.697 41.300 C 156.445 40.981,155.235 40.800,153.351 40.800 L 150.400 40.800 150.400 38.008 C 150.400 34.585,150.040 34.729,158.200 34.885 L 164.200 35.000 164.550 41.300 L 164.900 47.600 167.770 47.600 C 169.469 47.600,170.836 47.796,171.120 48.080 C 171.466 48.426,171.600 48.432,171.600 48.104 C 171.600 47.853,171.420 47.536,171.200 47.400 C 170.980 47.264,170.800 45.993,170.800 44.576 L 170.800 42.000 168.200 42.000 L 165.600 42.000 165.535 44.500 L 165.471 47.000 165.188 44.000 C 165.032 42.350,164.881 39.641,164.852 37.980 C 164.777 33.640,164.910 33.683,153.800 34.376 M328.083 34.500 C 328.129 34.555,328.264 39.280,328.383 45.000 L 328.600 55.400 331.190 55.521 C 334.244 55.665,334.440 55.877,334.338 58.913 C 334.216 62.515,333.601 62.372,349.660 62.495 L 363.400 62.600 363.600 79.515 C 363.827 98.732,363.484 97.184,367.518 97.194 L 370.037 97.200 369.918 99.883 L 369.800 102.566 367.677 102.452 C 364.284 102.270,363.660 102.907,363.517 106.698 L 363.400 109.800 352.800 109.800 L 342.200 109.800 342.284 119.896 L 342.368 129.993 341.484 130.211 C 340.998 130.331,337.900 130.378,334.600 130.315 L 328.600 130.200 328.483 127.335 C 328.340 123.814,328.174 123.667,324.181 123.518 L 321.000 123.400 320.895 109.907 L 320.789 96.413 310.295 96.307 L 299.800 96.200 299.460 89.600 C 299.273 85.970,299.067 82.944,299.001 82.875 C 298.936 82.806,294.276 82.643,288.645 82.512 L 278.407 82.275 278.304 61.838 L 278.200 41.400 271.629 41.290 C 267.612 41.222,264.852 41.009,264.529 40.741 C 263.984 40.288,263.781 36.237,264.243 35.033 C 264.454 34.482,327.630 33.954,328.083 34.500 M259.100 40.289 C 259.815 40.378,260.985 40.378,261.700 40.289 C 262.415 40.201,261.830 40.128,260.400 40.128 C 258.970 40.128,258.385 40.201,259.100 40.289 M236.213 41.979 C 236.073 42.206,235.997 43.480,236.045 44.810 C 236.096 46.232,235.940 47.420,235.666 47.694 C 235.151 48.209,235.003 54.630,235.500 54.940 C 235.665 55.042,235.742 53.515,235.671 51.545 L 235.542 47.964 242.552 48.082 C 249.453 48.198,252.037 47.750,245.799 47.519 L 242.600 47.400 242.400 44.600 L 242.200 41.800 239.334 41.683 C 237.666 41.615,236.361 41.739,236.213 41.979 M196.400 47.972 L 193.400 48.200 193.296 51.600 C 193.223 53.960,193.313 54.817,193.590 54.400 C 193.809 54.070,193.991 52.585,193.994 51.100 L 194.000 48.400 196.576 48.400 C 197.993 48.400,199.264 48.220,199.400 48.000 C 199.536 47.780,199.592 47.632,199.524 47.672 C 199.456 47.712,198.050 47.847,196.400 47.972 M242.800 55.200 L 236.200 55.430 242.676 55.515 C 246.657 55.567,249.248 55.446,249.400 55.200 C 249.536 54.980,249.592 54.838,249.524 54.885 C 249.456 54.932,246.430 55.073,242.800 55.200 M171.774 65.200 C 171.774 70.810,171.830 73.105,171.899 70.300 C 171.968 67.495,171.968 62.905,171.899 60.100 C 171.830 57.295,171.774 59.590,171.774 65.200 M156.479 65.300 L 156.400 68.400 153.600 68.400 L 150.800 68.400 150.800 71.567 C 150.800 73.309,150.693 75.064,150.562 75.467 C 150.365 76.077,150.397 76.099,150.756 75.600 C 150.994 75.270,151.191 73.695,151.194 72.100 L 151.200 69.200 153.813 69.200 C 156.894 69.200,156.888 69.207,156.698 65.163 L 156.559 62.200 156.479 65.300 M192.942 71.400 C 192.941 73.380,193.008 74.240,193.092 73.312 C 193.176 72.384,193.177 70.764,193.095 69.712 C 193.012 68.660,192.943 69.420,192.942 71.400 M121.768 76.140 C 121.654 76.437,121.624 77.922,121.702 79.440 L 121.843 82.200 121.922 79.133 C 121.973 77.117,122.171 75.998,122.500 75.865 C 122.892 75.707,122.889 75.656,122.487 75.632 C 122.206 75.614,121.882 75.843,121.768 76.140 M128.799 85.719 L 128.999 95.800 129.107 86.027 C 129.166 80.652,129.076 76.116,128.907 75.947 C 128.738 75.777,128.690 80.175,128.799 85.719 M150.661 82.500 C 150.763 82.665,152.082 82.800,153.590 82.800 C 155.099 82.800,156.425 82.985,156.537 83.210 C 156.649 83.436,156.694 83.391,156.639 83.110 C 156.571 82.773,155.511 82.532,153.506 82.400 C 151.838 82.290,150.558 82.335,150.661 82.500 M101.061 82.700 C 100.958 82.865,101.893 82.949,103.137 82.887 C 107.044 82.692,107.515 82.522,104.324 82.460 C 102.632 82.427,101.163 82.535,101.061 82.700 M100.546 92.600 C 100.547 94.800,100.614 95.649,100.695 94.487 C 100.776 93.324,100.776 91.524,100.693 90.487 C 100.611 89.449,100.545 90.400,100.546 92.600 M171.683 113.100 L 171.600 116.800 168.100 116.875 L 164.600 116.949 168.000 117.175 L 171.400 117.400 171.400 123.762 C 171.400 129.077,171.499 130.153,172.000 130.293 C 172.480 130.427,172.493 130.386,172.063 130.084 C 171.631 129.781,171.583 128.485,171.817 123.453 L 172.107 117.200 175.020 117.200 C 176.622 117.200,178.025 117.385,178.137 117.610 C 178.249 117.836,178.294 117.791,178.238 117.510 C 178.168 117.163,177.161 116.963,175.083 116.883 L 172.030 116.767 171.898 113.083 L 171.766 109.400 171.683 113.100 M363.600 127.400 L 363.800 130.600 381.164 130.704 C 393.172 130.776,398.694 130.946,399.064 131.253 C 399.634 131.726,399.795 243.380,399.249 259.600 L 399.000 267.000 385.235 267.105 C 369.311 267.227,370.400 266.923,370.400 271.249 L 370.400 274.400 367.400 274.400 L 364.400 274.400 364.400 271.833 C 364.400 267.935,364.469 268.000,360.357 268.000 L 356.800 268.000 356.800 264.816 L 356.800 261.631 353.300 261.516 L 349.800 261.400 349.685 257.915 L 349.569 254.431 346.085 254.315 L 342.600 254.200 342.343 241.063 C 342.201 233.837,341.931 227.776,341.743 227.593 C 341.554 227.410,338.473 227.132,334.896 226.975 L 328.391 226.688 328.496 209.644 L 328.600 192.600 339.000 192.400 L 349.400 192.200 349.470 158.400 C 349.508 139.810,349.553 124.461,349.570 124.291 C 349.586 124.120,352.705 124.030,356.500 124.091 L 363.400 124.200 363.600 127.400 M129.530 161.982 C 129.459 163.732,129.547 165.015,129.728 164.834 C 129.908 164.653,130.842 164.593,131.804 164.702 C 135.046 165.067,135.600 164.705,135.600 162.225 C 135.600 158.887,135.518 158.800,132.388 158.800 L 129.661 158.800 129.530 161.982 M128.894 178.684 L 128.800 191.968 125.500 192.102 L 122.200 192.237 125.513 192.319 C 129.621 192.420,129.233 193.924,129.100 178.397 L 128.989 165.400 128.894 178.684 M121.400 192.800 C 121.264 193.020,119.858 193.200,118.276 193.199 L 115.400 193.198 115.535 195.828 C 115.645 197.963,115.783 198.415,116.268 198.229 C 116.597 198.103,117.661 198.000,118.633 198.000 L 120.400 198.000 120.400 196.000 C 120.400 194.900,120.580 194.000,120.800 194.000 C 121.022 194.000,121.200 195.067,121.200 196.400 L 121.200 198.800 118.249 198.800 C 115.444 198.800,113.744 199.477,114.543 200.276 C 114.684 200.418,114.800 200.331,114.800 200.083 C 114.800 199.795,115.989 199.590,118.100 199.516 L 121.400 199.400 121.600 195.899 C 121.809 192.247,121.802 192.149,121.400 192.800 M92.667 206.667 C 92.520 206.813,92.400 208.163,92.400 209.667 L 92.400 212.400 87.663 212.400 C 81.454 212.400,72.000 212.860,72.000 213.162 C 71.999 213.293,73.844 213.284,76.100 213.142 C 78.355 213.001,83.035 212.866,86.500 212.842 L 92.800 212.800 92.800 210.374 C 92.800 209.039,92.986 207.599,93.214 207.174 C 93.607 206.439,93.237 206.096,92.667 206.667 M100.732 209.492 L 100.863 212.400 103.132 212.405 C 104.379 212.408,105.805 212.519,106.300 212.652 C 107.172 212.886,107.200 212.804,107.200 210.034 C 107.200 206.771,107.353 206.905,103.400 206.717 L 100.600 206.583 100.732 209.492 M107.366 216.600 L 107.400 220.200 110.900 220.316 C 113.291 220.395,114.408 220.585,114.426 220.916 C 114.441 221.182,114.486 222.480,114.526 223.800 L 114.600 226.200 118.100 226.316 L 121.600 226.431 121.600 223.848 C 121.600 219.979,121.620 220.000,117.957 220.000 L 114.800 220.000 114.800 216.576 C 114.800 214.262,114.662 213.238,114.375 213.415 C 114.122 213.572,113.986 214.913,114.039 216.739 L 114.129 219.800 110.964 219.800 L 107.800 219.800 107.566 216.400 L 107.332 213.000 107.366 216.600 M71.761 226.800 C 71.761 230.210,71.822 231.605,71.897 229.900 C 71.972 228.195,71.972 225.405,71.897 223.700 C 71.822 221.995,71.761 223.390,71.761 226.800 M114.180 233.980 C 113.971 234.188,112.540 234.413,111.000 234.480 L 108.200 234.600 108.083 237.470 L 107.966 240.340 111.283 240.470 L 114.600 240.600 114.468 237.444 C 114.371 235.135,114.479 234.196,114.868 233.950 C 115.160 233.764,115.211 233.609,114.980 233.606 C 114.749 233.603,114.389 233.771,114.180 233.980 M121.532 233.909 C 121.921 234.185,122.029 235.170,121.932 237.565 C 121.807 240.679,121.840 240.832,122.600 240.627 C 123.040 240.508,124.525 240.408,125.900 240.405 L 128.400 240.400 128.400 237.200 L 128.400 234.000 125.700 233.995 C 124.215 233.992,122.550 233.886,122.000 233.760 C 121.309 233.601,121.164 233.647,121.532 233.909 M85.737 237.400 C 85.739 239.160,85.809 239.830,85.893 238.889 C 85.978 237.949,85.977 236.509,85.891 235.689 C 85.805 234.870,85.736 235.640,85.737 237.400 M93.800 241.054 C 96.628 241.350,100.312 241.377,100.139 241.100 C 100.037 240.935,98.298 240.829,96.276 240.864 C 94.254 240.899,93.140 240.985,93.800 241.054 M128.968 241.340 C 128.550 242.428,128.986 247.333,129.510 247.438 C 129.791 247.494,129.835 247.449,129.610 247.337 C 129.385 247.225,129.200 245.806,129.200 244.183 L 129.200 241.234 132.300 241.097 L 135.400 240.961 132.287 240.880 C 129.986 240.821,129.121 240.941,128.968 241.340 M144.400 241.048 C 146.716 241.345,150.312 241.377,150.139 241.100 C 150.037 240.935,148.478 240.827,146.676 240.860 C 144.874 240.893,143.850 240.978,144.400 241.048 M135.678 244.067 C 135.627 246.083,135.429 247.202,135.100 247.335 C 134.708 247.493,134.711 247.544,135.113 247.568 C 135.885 247.616,136.053 246.797,135.898 243.760 L 135.757 241.000 135.678 244.067 M142.928 244.400 C 142.928 245.830,143.001 246.415,143.089 245.700 C 143.178 244.985,143.178 243.815,143.089 243.100 C 143.001 242.385,142.928 242.970,142.928 244.400 M100.466 249.200 C 100.432 250.410,100.520 253.695,100.663 256.500 L 100.923 261.600 107.162 261.534 C 113.382 261.468,110.891 261.020,103.347 260.847 L 101.293 260.800 100.911 253.900 C 100.701 250.105,100.501 247.990,100.466 249.200 M143.462 254.100 C 143.564 254.265,145.066 254.400,146.800 254.400 C 148.534 254.400,150.036 254.265,150.138 254.100 C 150.240 253.935,148.738 253.800,146.800 253.800 C 144.862 253.800,143.360 253.935,143.462 254.100 M35.931 258.000 C 36.003 259.870,35.939 264.325,35.788 267.900 L 35.515 274.400 32.557 274.400 L 29.600 274.400 29.600 271.214 C 29.600 266.944,30.543 267.200,14.826 267.200 L 1.600 267.200 1.600 260.796 L 1.600 254.391 18.700 254.496 L 35.800 254.600 35.931 258.000 M85.600 268.319 L 85.800 275.000 96.481 275.200 C 102.355 275.310,107.029 275.268,106.868 275.107 C 106.706 274.946,101.990 274.766,96.387 274.707 L 86.200 274.600 86.089 268.409 C 86.028 265.004,85.848 262.087,85.689 261.928 C 85.530 261.768,85.490 264.644,85.600 268.319 M114.194 262.100 C 114.287 262.375,114.454 265.170,114.565 268.312 C 114.810 275.233,114.553 274.800,118.409 274.800 L 121.570 274.800 121.685 278.500 L 121.800 282.200 128.767 282.200 C 134.620 282.200,135.760 282.104,135.897 281.600 C 136.021 281.145,135.974 281.124,135.701 281.510 C 135.428 281.897,133.744 281.994,128.770 281.910 L 122.200 281.800 121.938 278.000 C 121.794 275.910,121.614 272.940,121.538 271.400 L 121.400 268.600 118.617 268.480 C 114.980 268.323,114.800 268.137,114.800 264.551 C 114.800 262.914,114.627 261.600,114.413 261.600 C 114.199 261.600,114.101 261.825,114.194 262.100 M180.100 268.291 C 180.925 268.378,182.275 268.378,183.100 268.291 C 183.925 268.205,183.250 268.134,181.600 268.134 C 179.950 268.134,179.275 268.205,180.100 268.291 M135.760 275.000 C 135.761 278.300,135.822 279.597,135.898 277.882 C 135.973 276.167,135.972 273.467,135.897 271.882 C 135.821 270.297,135.759 271.700,135.760 275.000 M106.931 278.600 C 106.933 280.140,107.005 280.721,107.092 279.891 C 107.179 279.061,107.177 277.801,107.089 277.091 C 107.000 276.381,106.929 277.060,106.931 278.600 M185.955 282.117 C 186.131 282.292,187.788 282.380,189.637 282.314 L 193.000 282.194 189.318 281.997 C 187.293 281.889,185.780 281.943,185.955 282.117 M108.200 282.253 C 111.065 282.550,114.311 282.576,114.139 282.300 C 114.037 282.135,112.388 282.029,110.476 282.064 C 108.564 282.099,107.540 282.184,108.200 282.253 M193.534 285.209 C 193.614 286.913,193.854 288.110,194.134 288.199 C 194.941 288.456,200.002 288.648,199.612 288.407 C 199.408 288.281,199.186 286.923,199.120 285.389 L 199.000 282.600 196.200 282.484 L 193.400 282.367 193.534 285.209 M216.100 289.094 C 217.145 289.176,218.855 289.176,219.900 289.094 C 220.945 289.012,220.090 288.944,218.000 288.944 C 215.910 288.944,215.055 289.012,216.100 289.094 M61.041 316.609 L 63.882 316.861 64.141 321.093 C 64.283 323.420,64.400 327.801,64.400 330.828 L 64.400 336.332 61.792 336.466 C 58.316 336.645,58.400 336.715,58.400 333.643 C 58.400 329.518,58.949 329.729,47.496 329.468 C 42.049 329.344,37.414 329.132,37.196 328.998 C 36.743 328.718,36.638 316.695,37.085 316.248 C 37.404 315.929,56.630 316.219,61.041 316.609 M363.111 322.369 C 363.176 325.982,363.061 328.699,362.833 328.927 C 362.607 329.153,356.639 329.416,348.523 329.557 L 334.600 329.800 334.484 333.100 L 334.368 336.400 331.445 336.400 L 328.523 336.400 328.261 331.537 C 327.837 323.649,327.935 317.025,328.484 316.476 C 328.851 316.109,333.083 316.017,345.984 316.096 L 363.000 316.200 363.111 322.369 M156.717 340.297 C 156.854 343.661,157.007 343.772,161.175 343.537 L 163.601 343.400 163.601 346.889 L 163.600 350.378 150.000 350.305 L 136.400 350.232 136.400 343.709 L 136.400 337.186 146.500 337.293 L 156.600 337.400 156.717 340.297 M135.538 351.326 C 135.844 351.694,135.889 354.595,135.687 361.026 L 135.400 370.200 132.500 370.318 L 129.600 370.435 129.600 367.667 C 129.600 363.671,132.592 364.018,97.162 363.902 L 65.800 363.800 65.689 357.818 C 65.628 354.527,65.667 351.602,65.776 351.318 C 66.072 350.547,134.898 350.555,135.538 351.326 M327.800 357.400 L 327.800 363.800 299.638 363.903 C 267.781 364.019,270.400 363.682,270.400 367.667 L 270.400 370.435 267.500 370.318 L 264.600 370.200 264.311 361.400 C 264.151 356.560,264.110 352.194,264.219 351.698 L 264.416 350.795 296.108 350.898 L 327.800 351.000 327.800 357.400 " stroke="none" fill="#155a89" fill-rule="evenodd"></path><path id="path4" d="M364.334 99.799 L 364.468 102.400 367.234 102.400 L 370.000 102.400 370.000 99.800 L 370.000 97.200 367.100 97.199 L 364.200 97.198 364.334 99.799 M10.100 129.500 C 14.665 129.564,22.135 129.564,26.700 129.500 C 31.265 129.435,27.530 129.383,18.400 129.383 C 9.270 129.383,5.535 129.435,10.100 129.500 M373.500 129.500 C 378.175 129.564,385.825 129.564,390.500 129.500 C 395.175 129.436,391.350 129.383,382.000 129.383 C 372.650 129.383,368.825 129.436,373.500 129.500 M364.243 254.353 C 363.540 255.129,363.526 262.807,364.213 271.300 L 364.463 274.400 367.432 274.400 L 370.400 274.400 370.400 271.249 C 370.400 266.923,369.311 267.227,385.235 267.105 L 399.000 267.000 399.115 261.200 C 399.178 258.010,399.130 254.995,399.007 254.500 L 398.785 253.600 381.854 253.600 C 365.788 253.600,364.889 253.638,364.243 254.353 M1.600 260.796 L 1.600 267.200 14.826 267.200 C 30.543 267.200,29.600 266.944,29.600 271.214 L 29.600 274.400 32.557 274.400 L 35.515 274.400 35.788 267.900 C 35.939 264.325,36.003 259.870,35.931 258.000 L 35.800 254.600 18.700 254.496 L 1.600 254.391 1.600 260.796 M37.085 316.248 C 36.638 316.695,36.743 328.718,37.196 328.998 C 37.414 329.132,42.049 329.344,47.496 329.468 C 58.949 329.729,58.400 329.518,58.400 333.643 C 58.400 336.715,58.316 336.645,61.792 336.466 L 64.400 336.332 64.400 330.828 C 64.400 327.801,64.283 323.420,64.141 321.093 L 63.882 316.861 61.041 316.609 C 56.630 316.219,37.404 315.929,37.085 316.248 M328.484 316.476 C 327.935 317.025,327.837 323.649,328.261 331.537 L 328.523 336.400 331.445 336.400 L 334.368 336.400 334.484 333.100 L 334.600 329.800 348.523 329.557 C 356.639 329.416,362.607 329.153,362.833 328.927 C 363.061 328.699,363.176 325.982,363.111 322.369 L 363.000 316.200 345.984 316.096 C 333.083 316.017,328.851 316.109,328.484 316.476 M65.776 351.318 C 65.667 351.602,65.628 354.527,65.689 357.818 L 65.800 363.800 97.162 363.902 C 132.592 364.018,129.600 363.671,129.600 367.667 L 129.600 370.435 132.500 370.318 L 135.400 370.200 135.687 361.026 C 135.889 354.595,135.844 351.694,135.538 351.326 C 134.898 350.555,66.072 350.547,65.776 351.318 M264.219 351.698 C 264.110 352.194,264.151 356.560,264.311 361.400 L 264.600 370.200 267.500 370.318 L 270.400 370.435 270.400 367.667 C 270.400 363.682,267.781 364.019,299.638 363.903 L 327.800 363.800 327.800 357.400 L 327.800 351.000 296.108 350.898 L 264.416 350.795 264.219 351.698 M207.000 384.400 C 206.838 384.662,194.663 384.800,171.776 384.800 L 136.800 384.800 136.800 391.600 L 136.800 398.400 200.000 398.400 L 263.200 398.400 263.200 391.600 L 263.200 384.800 245.824 384.800 C 234.671 384.800,228.359 384.657,228.200 384.400 C 228.045 384.150,224.070 384.000,217.600 384.000 C 211.130 384.000,207.155 384.150,207.000 384.400 " stroke="none" fill="#04070b" fill-rule="evenodd"></path></g></svg>